M48
; DRILL file {KiCad 7.0.8} date Fri 13 Oct 2023 03:37:01 PM MSK
; FORMAT={-:-/ absolute / inch / decimal}
; #@! TF.CreationDate,2023-10-13T15:37:01+03:00
; #@! TF.GenerationSoftware,Kicad,Pcbnew,7.0.8
; #@! TF.FileFunction,Plated,1,2,PTH
FMAT,2
INCH
; #@! TA.AperFunction,Plated,PTH,ViaDrill
T1C0.0157
; #@! TA.AperFunction,Plated,PTH,ComponentDrill
T2C0.0236
; #@! TA.AperFunction,Plated,PTH,ComponentDrill
T3C0.0315
; #@! TA.AperFunction,Plated,PTH,ComponentDrill
T4C0.0394
%
G90
G05
T1
X6.6685Y-3.3685
X6.6954Y-2.5836
X6.7685Y-1.5685
X6.8504Y-2.0871
X6.8857Y-2.8823
X6.9374Y-3.0497
X6.9866Y-2.9452
X7.0578Y-2.7999
X7.1541Y-2.9065
X7.1709Y-3.5365
X7.1717Y-3.4715
X7.253Y-2.948
X7.2733Y-3.3283
X7.2897Y-3.1914
X7.3405Y-3.1909
X7.3605Y-3.3223
X7.3685Y-1.2685
X7.4046Y-3.1909
X7.4051Y-3.4555
X7.4499Y-2.8367
X7.4572Y-2.2162
X7.4573Y-2.2876
X7.4585Y-3.0595
X7.4685Y-2.7685
X7.4715Y-3.4711
X7.4817Y-2.8819
X7.495Y-3.0255
X7.5127Y-2.7446
X7.5151Y-3.3166
X7.5243Y-2.2865
X7.5395Y-3.2646
X7.5546Y-2.7344
X7.5685Y-2.8685
X7.5881Y-2.7831
X7.6038Y-2.6878
X7.7104Y-3.0096
X7.7274Y-2.4591
X7.761Y-2.8559
X7.8988Y-2.6361
X7.9144Y-3.2227
X7.9321Y-2.6992
X7.9685Y-1.5685
X7.9685Y-1.9685
X7.9733Y-2.8129
X7.9768Y-2.7361
X8.0005Y-3.2881
X8.005Y-2.9685
X8.0151Y-2.8419
X8.0185Y-2.6122
X8.0194Y-2.5516
X8.0239Y-2.759
X8.0721Y-3.3713
X8.2654Y-3.5893
X8.417Y-3.4879
X8.4753Y-3.4561
X8.5454Y-3.3729
X8.6579Y-3.4696
X8.6685Y-2.9685
X8.6891Y-3.3685
X8.7423Y-3.4023
X8.7638Y-3.5908
T3
X8.6557Y-3.2013
X8.7344Y-3.2013
T4
X6.7746Y-3.5495
X6.8746Y-3.5495
X6.9746Y-3.5495
T2
G00X7.2866Y-3.4327
M15
G01X7.2866Y-3.3894
M16
G05
G00X7.2866Y-3.5874
M15
G01X7.2866Y-3.5638
M16
G05
G00X7.6267Y-3.4327
M15
G01X7.6267Y-3.3894
M16
G05
G00X7.6267Y-3.5874
M15
G01X7.6267Y-3.5638
M16
G05
T0
M30
