%TF.GenerationSoftware,KiCad,Pcbnew,7.0.8*%
%TF.CreationDate,2023-10-13T15:36:56+03:00*%
%TF.ProjectId,4x4_switch,3478345f-7377-4697-9463-682e6b696361,rev?*%
%TF.SameCoordinates,Original*%
%TF.FileFunction,Copper,L1,Top*%
%TF.FilePolarity,Positive*%
%FSLAX46Y46*%
G04 Gerber Fmt 4.6, Leading zero omitted, Abs format (unit mm)*
G04 Created by KiCad (PCBNEW 7.0.8) date 2023-10-13 15:36:56*
%MOMM*%
%LPD*%
G01*
G04 APERTURE LIST*
%TA.AperFunction,ComponentPad*%
%ADD10R,1.350000X1.350000*%
%TD*%
%TA.AperFunction,ComponentPad*%
%ADD11O,1.350000X1.350000*%
%TD*%
%TA.AperFunction,ComponentPad*%
%ADD12R,1.700000X1.700000*%
%TD*%
%TA.AperFunction,ComponentPad*%
%ADD13O,1.700000X1.700000*%
%TD*%
%TA.AperFunction,ComponentPad*%
%ADD14O,1.000000X1.600000*%
%TD*%
%TA.AperFunction,ComponentPad*%
%ADD15O,1.000000X2.100000*%
%TD*%
%TA.AperFunction,ViaPad*%
%ADD16C,0.800000*%
%TD*%
%TA.AperFunction,Conductor*%
%ADD17C,0.300000*%
%TD*%
%TA.AperFunction,Conductor*%
%ADD18C,0.500000*%
%TD*%
G04 APERTURE END LIST*
D10*
%TO.P,J1,1,Pin_1*%
%TO.N,-BATT*%
X219853622Y-81312027D03*
D11*
%TO.P,J1,2,Pin_2*%
%TO.N,+BATT*%
X221853622Y-81312027D03*
%TD*%
D12*
%TO.P,J2,1,Pin_1*%
%TO.N,GND*%
X177155948Y-90157813D03*
D13*
%TO.P,J2,2,Pin_2*%
%TO.N,SWCLK*%
X174615948Y-90157813D03*
%TO.P,J2,3,Pin_3*%
%TO.N,SWDIO*%
X172075948Y-90157813D03*
%TD*%
D14*
%TO.P,P1,S1,SHIELD*%
%TO.N,unconnected-(P1-SHIELD-PadS1)*%
X193719042Y-90819719D03*
D15*
X193719042Y-86639719D03*
D14*
X185079042Y-90819719D03*
D15*
X185079042Y-86639719D03*
%TD*%
D16*
%TO.N,Net-(U2-PB5)*%
X169380000Y-85560000D03*
X177459937Y-74807424D03*
X174896139Y-73211096D03*
%TO.N,GND*%
X222054275Y-86417966D03*
X213792052Y-88593898D03*
%TO.N,+BATT*%
X217052831Y-85671841D03*
X203212428Y-83518890D03*
%TO.N,Net-(U5-Gate_2)*%
X215271826Y-87784859D03*
X220704377Y-85559999D03*
%TO.N,Net-(U5-Gate_1)*%
X219911406Y-88126967D03*
X222601558Y-91205734D03*
%TO.N,+3.3V*%
X201025017Y-81855367D03*
X191504377Y-82921185D03*
%TO.N,+5V*%
X209940792Y-91168123D03*
X205032095Y-85630769D03*
%TO.N,row_4*%
X220180000Y-75400000D03*
%TO.N,row_1*%
X187160000Y-32220000D03*
%TO.N,row_2*%
X202400000Y-50000000D03*
%TO.N,row_1*%
X200630075Y-66956167D03*
%TO.N,row_2*%
X201475909Y-68558876D03*
%TO.N,col_1*%
X173999678Y-53012171D03*
X196277097Y-62462376D03*
%TO.N,col_2*%
X193137478Y-68270209D03*
%TO.N,row_3*%
X202611220Y-69496167D03*
X203693726Y-64809709D03*
%TO.N,row_4*%
X202522234Y-71446667D03*
%TO.N,col_4*%
X203806966Y-70078078D03*
X203670813Y-66350741D03*
%TO.N,row_4*%
X203327571Y-75400000D03*
X195844311Y-76444894D03*
%TO.N,SWDIO*%
X185158612Y-81060856D03*
%TO.N,SWCLK*%
X176210658Y-77463267D03*
%TO.N,SWDIO*%
X190034234Y-73199539D03*
%TO.N,col_2*%
X171920000Y-39840000D03*
X170063009Y-65622485D03*
%TO.N,col_3*%
X202400000Y-39840000D03*
X203584143Y-72184071D03*
%TO.N,+3.3V*%
X181713902Y-73826186D03*
X189700000Y-70320000D03*
X192240000Y-72860000D03*
%TO.N,GND*%
X184740951Y-84538823D03*
%TO.N,USB_D-*%
X190371941Y-76846447D03*
%TO.N,USB_D+*%
X189444800Y-77711152D03*
X188077003Y-81049174D03*
%TO.N,USB_D-*%
X186448532Y-81049174D03*
%TO.N,Net-(P1-VCONN)*%
X188089770Y-87770616D03*
%TO.N,Net-(P1-CC)*%
X189776212Y-88165876D03*
X182142000Y-89828245D03*
%TO.N,Net-(P1-VCONN)*%
X182161062Y-88176246D03*
%TO.N,+5V*%
X190882940Y-84242466D03*
X186955851Y-84387408D03*
%TO.N,GND*%
X189227273Y-72051790D03*
X197129029Y-72540311D03*
X184226606Y-74878054D03*
X189416513Y-58104720D03*
X179268272Y-71118529D03*
X191887247Y-69452806D03*
%TO.N,+3.3V*%
X192736578Y-70689730D03*
X191117433Y-58078143D03*
%TO.N,RESET*%
X189412219Y-56291155D03*
X190821563Y-69713306D03*
%TD*%
D17*
%TO.N,Net-(P1-CC)*%
X189776212Y-88165876D02*
X188489981Y-89452107D01*
X188489981Y-89452107D02*
X182518138Y-89452107D01*
X182518138Y-89452107D02*
X182142000Y-89828245D01*
%TO.N,Net-(P1-VCONN)*%
X182161062Y-88176246D02*
X182403947Y-88419131D01*
X182403947Y-88419131D02*
X187441255Y-88419131D01*
X187441255Y-88419131D02*
X188089770Y-87770616D01*
%TO.N,Net-(U2-PB5)*%
X171920000Y-83020000D02*
X169380000Y-85560000D01*
X174896139Y-73211096D02*
X171920000Y-76187235D01*
X171920000Y-76187235D02*
X171920000Y-83020000D01*
X174896139Y-73211096D02*
X175863609Y-73211096D01*
X175863609Y-73211096D02*
X177459937Y-74807424D01*
D18*
%TO.N,+3.3V*%
X181713902Y-73826186D02*
X181713902Y-73226098D01*
X181713902Y-73226098D02*
X184620000Y-70320000D01*
X184620000Y-70320000D02*
X189700000Y-70320000D01*
%TO.N,GND*%
X181564395Y-74878054D02*
X179268272Y-72581931D01*
X179268272Y-72581931D02*
X179268272Y-71118529D01*
%TO.N,+BATT*%
X221853622Y-81312027D02*
X221853622Y-83415795D01*
X221853622Y-83415795D02*
X221743768Y-83525649D01*
X221743768Y-83525649D02*
X219199023Y-83525649D01*
X219199023Y-83525649D02*
X217052831Y-85671841D01*
%TO.N,GND*%
X222054275Y-86417966D02*
X222054275Y-85236384D01*
X222054275Y-85236384D02*
X221420527Y-84602636D01*
X217511667Y-86758577D02*
X214697352Y-86758577D01*
X221420527Y-84602636D02*
X219667608Y-84602636D01*
X213792052Y-87663877D02*
X213792052Y-88593898D01*
X219667608Y-84602636D02*
X217511667Y-86758577D01*
X214697352Y-86758577D02*
X213792052Y-87663877D01*
D17*
%TO.N,Net-(U5-Gate_2)*%
X220704377Y-85559999D02*
X218506485Y-87757891D01*
X218506485Y-87757891D02*
X215298794Y-87757891D01*
X215298794Y-87757891D02*
X215271826Y-87784859D01*
D18*
%TO.N,+BATT*%
X217052831Y-85671841D02*
X208028723Y-85671841D01*
X208028723Y-85671841D02*
X205875772Y-83518890D01*
X205875772Y-83518890D02*
X203212428Y-83518890D01*
D17*
%TO.N,Net-(U5-Gate_1)*%
X222601558Y-91205734D02*
X219911406Y-88515582D01*
X219911406Y-88515582D02*
X219911406Y-88126967D01*
D18*
%TO.N,+3.3V*%
X191504377Y-76318296D02*
X192712078Y-76318296D01*
X192712078Y-76318296D02*
X194076275Y-77682493D01*
X194076275Y-77682493D02*
X196852143Y-77682493D01*
X196852143Y-77682493D02*
X201025017Y-81855367D01*
D17*
%TO.N,row_4*%
X195844311Y-76444894D02*
X196889205Y-75400000D01*
X196889205Y-75400000D02*
X199860000Y-75400000D01*
D18*
%TO.N,+3.3V*%
X201025017Y-81984814D02*
X200992655Y-81952452D01*
X201025017Y-81855367D02*
X201025017Y-81984814D01*
X191504377Y-76318296D02*
X191504377Y-73595623D01*
X191504377Y-82921185D02*
X191504377Y-76318296D01*
%TO.N,+5V*%
X209940792Y-91168123D02*
X208008123Y-91168123D01*
X208008123Y-91168123D02*
X205032095Y-88192095D01*
X205032095Y-88192095D02*
X205032095Y-85630769D01*
X190882940Y-84242466D02*
X193871706Y-84242466D01*
X193871706Y-84242466D02*
X196485692Y-86856452D01*
X196485692Y-86856452D02*
X203806412Y-86856452D01*
X203806412Y-86856452D02*
X205032095Y-85630769D01*
D17*
%TO.N,row_4*%
X203327571Y-75400000D02*
X220180000Y-75400000D01*
%TO.N,row_1*%
X200630075Y-66956167D02*
X200630075Y-65264323D01*
X200630075Y-65264323D02*
X197659784Y-62294032D01*
X197659784Y-62294032D02*
X197659784Y-57412300D01*
X197659784Y-57412300D02*
X189700000Y-49452516D01*
X189700000Y-34760000D02*
X187160000Y-32220000D01*
X189700000Y-49452516D02*
X189700000Y-34760000D01*
%TO.N,row_2*%
X201475909Y-68558876D02*
X201966575Y-68068210D01*
X201966575Y-68068210D02*
X201966575Y-63788279D01*
X201966575Y-63788279D02*
X203176235Y-62578619D01*
X203176235Y-62578619D02*
X203176235Y-50776235D01*
X203176235Y-50776235D02*
X202400000Y-50000000D01*
%TO.N,row_3*%
X203693726Y-64809709D02*
X202769636Y-65733799D01*
X202769636Y-65733799D02*
X202769636Y-69337751D01*
X202769636Y-69337751D02*
X202611220Y-69496167D01*
%TO.N,col_3*%
X203584143Y-72184071D02*
X205270488Y-70497726D01*
X205270488Y-42710488D02*
X202400000Y-39840000D01*
X205270488Y-70497726D02*
X205270488Y-42710488D01*
%TO.N,col_1*%
X196277097Y-62462376D02*
X196277097Y-58683672D01*
X196277097Y-58683672D02*
X190626160Y-53032735D01*
X190626160Y-53032735D02*
X174020242Y-53032735D01*
X174020242Y-53032735D02*
X173999678Y-53012171D01*
X173979114Y-53032735D02*
X173922814Y-53032735D01*
X173999678Y-53012171D02*
X173979114Y-53032735D01*
%TO.N,col_2*%
X193137478Y-68270209D02*
X191764753Y-66897484D01*
X191764753Y-60635247D02*
X192361380Y-60038620D01*
X192361380Y-56882982D02*
X190558398Y-55080000D01*
X190558398Y-55080000D02*
X171920000Y-55080000D01*
X191764753Y-66897484D02*
X191764753Y-60635247D01*
X192361380Y-60038620D02*
X192361380Y-56882982D01*
X171920000Y-63765494D02*
X171920000Y-55080000D01*
X171920000Y-55080000D02*
X171920000Y-39840000D01*
%TO.N,+3.3V*%
X192736578Y-70689730D02*
X192637247Y-70590399D01*
X192637247Y-70590399D02*
X192637247Y-69142145D01*
X192637247Y-69142145D02*
X191117433Y-67622331D01*
X191117433Y-67622331D02*
X191117433Y-58078143D01*
%TO.N,row_4*%
X199860000Y-75400000D02*
X199860000Y-72860000D01*
X199860000Y-72860000D02*
X201273333Y-71446667D01*
X201273333Y-71446667D02*
X202522234Y-71446667D01*
X203327571Y-75400000D02*
X199860000Y-75400000D01*
%TO.N,col_4*%
X203806966Y-70078078D02*
X203670813Y-69941925D01*
X203670813Y-69941925D02*
X203670813Y-66350741D01*
%TO.N,USB_D+*%
X188077003Y-80236085D02*
X188077003Y-80658099D01*
X188777003Y-79936085D02*
X188377003Y-79936085D01*
X189401936Y-77711152D02*
X188077003Y-79036085D01*
X188777003Y-79936103D02*
G75*
G03*
X189077003Y-79636085I-3J300003D01*
G01*
X188377003Y-79936103D02*
G75*
G03*
X188077003Y-80236085I-3J-299997D01*
G01*
X188377003Y-79336085D02*
X188777003Y-79336085D01*
X189077015Y-79636085D02*
G75*
G03*
X188777003Y-79336085I-300015J-15D01*
G01*
X188077015Y-79036085D02*
G75*
G03*
X188377003Y-79336085I299985J-15D01*
G01*
X189444800Y-77711152D02*
X189401936Y-77711152D01*
X188077003Y-80658099D02*
X188077003Y-81049174D01*
%TO.N,SWDIO*%
X185817868Y-80401600D02*
X185817868Y-77873994D01*
X185817868Y-77873994D02*
X190051082Y-73640780D01*
X190051082Y-73216387D02*
X190034234Y-73199539D01*
X185158612Y-81060856D02*
X185817868Y-80401600D01*
X190051082Y-73640780D02*
X190051082Y-73216387D01*
D18*
%TO.N,GND*%
X184740951Y-84538823D02*
X184740951Y-82211509D01*
X184740951Y-82211509D02*
X180707065Y-78177623D01*
X180707065Y-78177623D02*
X180707065Y-75735384D01*
X180707065Y-75735384D02*
X181564395Y-74878054D01*
X181564395Y-74878054D02*
X184226606Y-74878054D01*
D17*
%TO.N,SWCLK*%
X176210658Y-77463267D02*
X174615948Y-79057977D01*
X174615948Y-79057977D02*
X174615948Y-90157813D01*
D18*
%TO.N,GND*%
X190508210Y-72051790D02*
X191887247Y-70672753D01*
X189227273Y-72051790D02*
X188419063Y-72860000D01*
D17*
X189227273Y-72051790D02*
X189587392Y-71691671D01*
D18*
X188419063Y-72860000D02*
X184620000Y-72860000D01*
D17*
X189587392Y-71691671D02*
X196280389Y-71691671D01*
X196280389Y-71691671D02*
X197129029Y-72540311D01*
D18*
X189227273Y-72051790D02*
X190508210Y-72051790D01*
X191887247Y-70672753D02*
X191887247Y-69452806D01*
X184620000Y-72860000D02*
X184226606Y-73253394D01*
D17*
%TO.N,col_2*%
X170063009Y-65622485D02*
X171920000Y-63765494D01*
D18*
%TO.N,+3.3V*%
X191504377Y-73595623D02*
X192240000Y-72860000D01*
%TO.N,GND*%
X183027797Y-74878054D02*
X184226606Y-73679245D01*
X184226606Y-73679245D02*
X184226606Y-73253394D01*
X183027797Y-74878054D02*
X183475181Y-74430670D01*
X183475181Y-74430670D02*
X184226606Y-74430670D01*
X184226606Y-74878054D02*
X184226606Y-73253394D01*
X184226606Y-74878054D02*
X183027797Y-74878054D01*
D17*
%TO.N,USB_D-*%
X190371941Y-76846447D02*
X187999904Y-76846447D01*
X187999904Y-76846447D02*
X186448532Y-78397819D01*
X186448532Y-78397819D02*
X186448532Y-81049174D01*
%TO.N,Net-(P1-CC)*%
X189700000Y-88165876D02*
X189776212Y-88165876D01*
D18*
%TO.N,+5V*%
X186955851Y-84387408D02*
X190737998Y-84387408D01*
X190737998Y-84387408D02*
X190882940Y-84242466D01*
D17*
%TO.N,RESET*%
X188666513Y-67558256D02*
X188666513Y-57036861D01*
X190821563Y-69713306D02*
X188666513Y-67558256D01*
X188666513Y-57036861D02*
X189412219Y-56291155D01*
%TO.N,GND*%
X191887247Y-69452806D02*
X190006165Y-67571724D01*
X190006165Y-67571724D02*
X190006165Y-58694372D01*
X190006165Y-58694372D02*
X189416513Y-58104720D01*
%TD*%
M02*
