M48
; DRILL file {KiCad 7.0.8} date Fri 13 Oct 2023 03:37:01 PM MSK
; FORMAT={-:-/ absolute / inch / decimal}
; #@! TF.CreationDate,2023-10-13T15:37:01+03:00
; #@! TF.GenerationSoftware,Kicad,Pcbnew,7.0.8
; #@! TF.FileFunction,NonPlated,1,2,NPTH
FMAT,2
INCH
; #@! TA.AperFunction,NonPlated,NPTH,ComponentDrill
T1C0.0256
; #@! TA.AperFunction,NonPlated,NPTH,ComponentDrill
T2C0.1201
; #@! TA.AperFunction,NonPlated,NPTH,ComponentDrill
T3C0.1575
%
G90
G05
T1
X7.3429Y-3.4319
X7.5704Y-3.4319
T2
X6.3382Y-1.2228
X6.3382Y-1.8685
X6.3382Y-2.5142
X6.3382Y-3.1598
X6.5882Y-1.1228
X6.5882Y-1.7685
X6.5882Y-2.4142
X6.5882Y-3.0598
X6.9839Y-1.2228
X6.9839Y-1.8685
X6.9839Y-2.5142
X6.9839Y-3.1598
X7.2339Y-1.1228
X7.2339Y-1.7685
X7.2339Y-2.4142
X7.2339Y-3.0598
X7.6295Y-1.2228
X7.6295Y-1.8685
X7.6295Y-2.5142
X7.6295Y-3.1598
X7.8795Y-1.1228
X7.8795Y-1.7685
X7.8795Y-2.4142
X7.8795Y-3.0598
X8.2752Y-1.2228
X8.2752Y-1.8685
X8.2752Y-2.5142
X8.2752Y-3.1598
X8.5252Y-1.1228
X8.5252Y-1.7685
X8.5252Y-2.4142
X8.5252Y-3.0598
T3
X6.4882Y-1.3228
X6.4882Y-1.9685
X6.4882Y-2.6142
X6.4882Y-3.2598
X7.1339Y-1.3228
X7.1339Y-1.9685
X7.1339Y-2.6142
X7.1339Y-3.2598
X7.7795Y-1.3228
X7.7795Y-1.9685
X7.7795Y-2.6142
X7.7795Y-3.2598
X8.4252Y-1.3228
X8.4252Y-1.9685
X8.4252Y-2.6142
X8.4252Y-3.2598
T0
M30
