%TF.GenerationSoftware,KiCad,Pcbnew,7.0.8*%
%TF.CreationDate,2023-10-13T15:36:57+03:00*%
%TF.ProjectId,4x4_switch,3478345f-7377-4697-9463-682e6b696361,rev?*%
%TF.SameCoordinates,Original*%
%TF.FileFunction,Legend,Top*%
%TF.FilePolarity,Positive*%
%FSLAX46Y46*%
G04 Gerber Fmt 4.6, Leading zero omitted, Abs format (unit mm)*
G04 Created by KiCad (PCBNEW 7.0.8) date 2023-10-13 15:36:57*
%MOMM*%
%LPD*%
G01*
G04 APERTURE LIST*
%ADD10C,0.150000*%
%ADD11C,0.120000*%
G04 APERTURE END LIST*
D10*
X162992012Y-70612415D02*
X163134869Y-70660034D01*
X163134869Y-70660034D02*
X163372964Y-70660034D01*
X163372964Y-70660034D02*
X163468202Y-70612415D01*
X163468202Y-70612415D02*
X163515821Y-70564795D01*
X163515821Y-70564795D02*
X163563440Y-70469557D01*
X163563440Y-70469557D02*
X163563440Y-70374319D01*
X163563440Y-70374319D02*
X163515821Y-70279081D01*
X163515821Y-70279081D02*
X163468202Y-70231462D01*
X163468202Y-70231462D02*
X163372964Y-70183843D01*
X163372964Y-70183843D02*
X163182488Y-70136224D01*
X163182488Y-70136224D02*
X163087250Y-70088605D01*
X163087250Y-70088605D02*
X163039631Y-70040986D01*
X163039631Y-70040986D02*
X162992012Y-69945748D01*
X162992012Y-69945748D02*
X162992012Y-69850510D01*
X162992012Y-69850510D02*
X163039631Y-69755272D01*
X163039631Y-69755272D02*
X163087250Y-69707653D01*
X163087250Y-69707653D02*
X163182488Y-69660034D01*
X163182488Y-69660034D02*
X163420583Y-69660034D01*
X163420583Y-69660034D02*
X163563440Y-69707653D01*
X163896774Y-69660034D02*
X164134869Y-70660034D01*
X164134869Y-70660034D02*
X164325345Y-69945748D01*
X164325345Y-69945748D02*
X164515821Y-70660034D01*
X164515821Y-70660034D02*
X164753917Y-69660034D01*
X165658678Y-70660034D02*
X165087250Y-70660034D01*
X165372964Y-70660034D02*
X165372964Y-69660034D01*
X165372964Y-69660034D02*
X165277726Y-69802891D01*
X165277726Y-69802891D02*
X165182488Y-69898129D01*
X165182488Y-69898129D02*
X165087250Y-69945748D01*
X166611059Y-70660034D02*
X166039631Y-70660034D01*
X166325345Y-70660034D02*
X166325345Y-69660034D01*
X166325345Y-69660034D02*
X166230107Y-69802891D01*
X166230107Y-69802891D02*
X166134869Y-69898129D01*
X166134869Y-69898129D02*
X166039631Y-69945748D01*
X212211656Y-70474208D02*
X212354513Y-70521827D01*
X212354513Y-70521827D02*
X212592608Y-70521827D01*
X212592608Y-70521827D02*
X212687846Y-70474208D01*
X212687846Y-70474208D02*
X212735465Y-70426588D01*
X212735465Y-70426588D02*
X212783084Y-70331350D01*
X212783084Y-70331350D02*
X212783084Y-70236112D01*
X212783084Y-70236112D02*
X212735465Y-70140874D01*
X212735465Y-70140874D02*
X212687846Y-70093255D01*
X212687846Y-70093255D02*
X212592608Y-70045636D01*
X212592608Y-70045636D02*
X212402132Y-69998017D01*
X212402132Y-69998017D02*
X212306894Y-69950398D01*
X212306894Y-69950398D02*
X212259275Y-69902779D01*
X212259275Y-69902779D02*
X212211656Y-69807541D01*
X212211656Y-69807541D02*
X212211656Y-69712303D01*
X212211656Y-69712303D02*
X212259275Y-69617065D01*
X212259275Y-69617065D02*
X212306894Y-69569446D01*
X212306894Y-69569446D02*
X212402132Y-69521827D01*
X212402132Y-69521827D02*
X212640227Y-69521827D01*
X212640227Y-69521827D02*
X212783084Y-69569446D01*
X213116418Y-69521827D02*
X213354513Y-70521827D01*
X213354513Y-70521827D02*
X213544989Y-69807541D01*
X213544989Y-69807541D02*
X213735465Y-70521827D01*
X213735465Y-70521827D02*
X213973561Y-69521827D01*
X214306894Y-69617065D02*
X214354513Y-69569446D01*
X214354513Y-69569446D02*
X214449751Y-69521827D01*
X214449751Y-69521827D02*
X214687846Y-69521827D01*
X214687846Y-69521827D02*
X214783084Y-69569446D01*
X214783084Y-69569446D02*
X214830703Y-69617065D01*
X214830703Y-69617065D02*
X214878322Y-69712303D01*
X214878322Y-69712303D02*
X214878322Y-69807541D01*
X214878322Y-69807541D02*
X214830703Y-69950398D01*
X214830703Y-69950398D02*
X214259275Y-70521827D01*
X214259275Y-70521827D02*
X214878322Y-70521827D01*
X215211656Y-69521827D02*
X215830703Y-69521827D01*
X215830703Y-69521827D02*
X215497370Y-69902779D01*
X215497370Y-69902779D02*
X215640227Y-69902779D01*
X215640227Y-69902779D02*
X215735465Y-69950398D01*
X215735465Y-69950398D02*
X215783084Y-69998017D01*
X215783084Y-69998017D02*
X215830703Y-70093255D01*
X215830703Y-70093255D02*
X215830703Y-70331350D01*
X215830703Y-70331350D02*
X215783084Y-70426588D01*
X215783084Y-70426588D02*
X215735465Y-70474208D01*
X215735465Y-70474208D02*
X215640227Y-70521827D01*
X215640227Y-70521827D02*
X215354513Y-70521827D01*
X215354513Y-70521827D02*
X215259275Y-70474208D01*
X215259275Y-70474208D02*
X215211656Y-70426588D01*
X195751213Y-70444116D02*
X195894070Y-70491735D01*
X195894070Y-70491735D02*
X196132165Y-70491735D01*
X196132165Y-70491735D02*
X196227403Y-70444116D01*
X196227403Y-70444116D02*
X196275022Y-70396496D01*
X196275022Y-70396496D02*
X196322641Y-70301258D01*
X196322641Y-70301258D02*
X196322641Y-70206020D01*
X196322641Y-70206020D02*
X196275022Y-70110782D01*
X196275022Y-70110782D02*
X196227403Y-70063163D01*
X196227403Y-70063163D02*
X196132165Y-70015544D01*
X196132165Y-70015544D02*
X195941689Y-69967925D01*
X195941689Y-69967925D02*
X195846451Y-69920306D01*
X195846451Y-69920306D02*
X195798832Y-69872687D01*
X195798832Y-69872687D02*
X195751213Y-69777449D01*
X195751213Y-69777449D02*
X195751213Y-69682211D01*
X195751213Y-69682211D02*
X195798832Y-69586973D01*
X195798832Y-69586973D02*
X195846451Y-69539354D01*
X195846451Y-69539354D02*
X195941689Y-69491735D01*
X195941689Y-69491735D02*
X196179784Y-69491735D01*
X196179784Y-69491735D02*
X196322641Y-69539354D01*
X196655975Y-69491735D02*
X196894070Y-70491735D01*
X196894070Y-70491735D02*
X197084546Y-69777449D01*
X197084546Y-69777449D02*
X197275022Y-70491735D01*
X197275022Y-70491735D02*
X197513118Y-69491735D01*
X198417879Y-70491735D02*
X197846451Y-70491735D01*
X198132165Y-70491735D02*
X198132165Y-69491735D01*
X198132165Y-69491735D02*
X198036927Y-69634592D01*
X198036927Y-69634592D02*
X197941689Y-69729830D01*
X197941689Y-69729830D02*
X197846451Y-69777449D01*
X198894070Y-70491735D02*
X199084546Y-70491735D01*
X199084546Y-70491735D02*
X199179784Y-70444116D01*
X199179784Y-70444116D02*
X199227403Y-70396496D01*
X199227403Y-70396496D02*
X199322641Y-70253639D01*
X199322641Y-70253639D02*
X199370260Y-70063163D01*
X199370260Y-70063163D02*
X199370260Y-69682211D01*
X199370260Y-69682211D02*
X199322641Y-69586973D01*
X199322641Y-69586973D02*
X199275022Y-69539354D01*
X199275022Y-69539354D02*
X199179784Y-69491735D01*
X199179784Y-69491735D02*
X198989308Y-69491735D01*
X198989308Y-69491735D02*
X198894070Y-69539354D01*
X198894070Y-69539354D02*
X198846451Y-69586973D01*
X198846451Y-69586973D02*
X198798832Y-69682211D01*
X198798832Y-69682211D02*
X198798832Y-69920306D01*
X198798832Y-69920306D02*
X198846451Y-70015544D01*
X198846451Y-70015544D02*
X198894070Y-70063163D01*
X198894070Y-70063163D02*
X198989308Y-70110782D01*
X198989308Y-70110782D02*
X199179784Y-70110782D01*
X199179784Y-70110782D02*
X199275022Y-70063163D01*
X199275022Y-70063163D02*
X199322641Y-70015544D01*
X199322641Y-70015544D02*
X199370260Y-69920306D01*
X212238330Y-87111185D02*
X212381187Y-87158804D01*
X212381187Y-87158804D02*
X212619282Y-87158804D01*
X212619282Y-87158804D02*
X212714520Y-87111185D01*
X212714520Y-87111185D02*
X212762139Y-87063565D01*
X212762139Y-87063565D02*
X212809758Y-86968327D01*
X212809758Y-86968327D02*
X212809758Y-86873089D01*
X212809758Y-86873089D02*
X212762139Y-86777851D01*
X212762139Y-86777851D02*
X212714520Y-86730232D01*
X212714520Y-86730232D02*
X212619282Y-86682613D01*
X212619282Y-86682613D02*
X212428806Y-86634994D01*
X212428806Y-86634994D02*
X212333568Y-86587375D01*
X212333568Y-86587375D02*
X212285949Y-86539756D01*
X212285949Y-86539756D02*
X212238330Y-86444518D01*
X212238330Y-86444518D02*
X212238330Y-86349280D01*
X212238330Y-86349280D02*
X212285949Y-86254042D01*
X212285949Y-86254042D02*
X212333568Y-86206423D01*
X212333568Y-86206423D02*
X212428806Y-86158804D01*
X212428806Y-86158804D02*
X212666901Y-86158804D01*
X212666901Y-86158804D02*
X212809758Y-86206423D01*
X213143092Y-86158804D02*
X213381187Y-87158804D01*
X213381187Y-87158804D02*
X213571663Y-86444518D01*
X213571663Y-86444518D02*
X213762139Y-87158804D01*
X213762139Y-87158804D02*
X214000235Y-86158804D01*
X214333568Y-86254042D02*
X214381187Y-86206423D01*
X214381187Y-86206423D02*
X214476425Y-86158804D01*
X214476425Y-86158804D02*
X214714520Y-86158804D01*
X214714520Y-86158804D02*
X214809758Y-86206423D01*
X214809758Y-86206423D02*
X214857377Y-86254042D01*
X214857377Y-86254042D02*
X214904996Y-86349280D01*
X214904996Y-86349280D02*
X214904996Y-86444518D01*
X214904996Y-86444518D02*
X214857377Y-86587375D01*
X214857377Y-86587375D02*
X214285949Y-87158804D01*
X214285949Y-87158804D02*
X214904996Y-87158804D01*
X215762139Y-86492137D02*
X215762139Y-87158804D01*
X215524044Y-86111185D02*
X215285949Y-86825470D01*
X215285949Y-86825470D02*
X215904996Y-86825470D01*
X162786946Y-87111185D02*
X162929803Y-87158804D01*
X162929803Y-87158804D02*
X163167898Y-87158804D01*
X163167898Y-87158804D02*
X163263136Y-87111185D01*
X163263136Y-87111185D02*
X163310755Y-87063565D01*
X163310755Y-87063565D02*
X163358374Y-86968327D01*
X163358374Y-86968327D02*
X163358374Y-86873089D01*
X163358374Y-86873089D02*
X163310755Y-86777851D01*
X163310755Y-86777851D02*
X163263136Y-86730232D01*
X163263136Y-86730232D02*
X163167898Y-86682613D01*
X163167898Y-86682613D02*
X162977422Y-86634994D01*
X162977422Y-86634994D02*
X162882184Y-86587375D01*
X162882184Y-86587375D02*
X162834565Y-86539756D01*
X162834565Y-86539756D02*
X162786946Y-86444518D01*
X162786946Y-86444518D02*
X162786946Y-86349280D01*
X162786946Y-86349280D02*
X162834565Y-86254042D01*
X162834565Y-86254042D02*
X162882184Y-86206423D01*
X162882184Y-86206423D02*
X162977422Y-86158804D01*
X162977422Y-86158804D02*
X163215517Y-86158804D01*
X163215517Y-86158804D02*
X163358374Y-86206423D01*
X163691708Y-86158804D02*
X163929803Y-87158804D01*
X163929803Y-87158804D02*
X164120279Y-86444518D01*
X164120279Y-86444518D02*
X164310755Y-87158804D01*
X164310755Y-87158804D02*
X164548851Y-86158804D01*
X165453612Y-87158804D02*
X164882184Y-87158804D01*
X165167898Y-87158804D02*
X165167898Y-86158804D01*
X165167898Y-86158804D02*
X165072660Y-86301661D01*
X165072660Y-86301661D02*
X164977422Y-86396899D01*
X164977422Y-86396899D02*
X164882184Y-86444518D01*
X165834565Y-86254042D02*
X165882184Y-86206423D01*
X165882184Y-86206423D02*
X165977422Y-86158804D01*
X165977422Y-86158804D02*
X166215517Y-86158804D01*
X166215517Y-86158804D02*
X166310755Y-86206423D01*
X166310755Y-86206423D02*
X166358374Y-86254042D01*
X166358374Y-86254042D02*
X166405993Y-86349280D01*
X166405993Y-86349280D02*
X166405993Y-86444518D01*
X166405993Y-86444518D02*
X166358374Y-86587375D01*
X166358374Y-86587375D02*
X165786946Y-87158804D01*
X165786946Y-87158804D02*
X166405993Y-87158804D01*
X179322740Y-87007187D02*
X179465597Y-87054806D01*
X179465597Y-87054806D02*
X179703692Y-87054806D01*
X179703692Y-87054806D02*
X179798930Y-87007187D01*
X179798930Y-87007187D02*
X179846549Y-86959567D01*
X179846549Y-86959567D02*
X179894168Y-86864329D01*
X179894168Y-86864329D02*
X179894168Y-86769091D01*
X179894168Y-86769091D02*
X179846549Y-86673853D01*
X179846549Y-86673853D02*
X179798930Y-86626234D01*
X179798930Y-86626234D02*
X179703692Y-86578615D01*
X179703692Y-86578615D02*
X179513216Y-86530996D01*
X179513216Y-86530996D02*
X179417978Y-86483377D01*
X179417978Y-86483377D02*
X179370359Y-86435758D01*
X179370359Y-86435758D02*
X179322740Y-86340520D01*
X179322740Y-86340520D02*
X179322740Y-86245282D01*
X179322740Y-86245282D02*
X179370359Y-86150044D01*
X179370359Y-86150044D02*
X179417978Y-86102425D01*
X179417978Y-86102425D02*
X179513216Y-86054806D01*
X179513216Y-86054806D02*
X179751311Y-86054806D01*
X179751311Y-86054806D02*
X179894168Y-86102425D01*
X180227502Y-86054806D02*
X180465597Y-87054806D01*
X180465597Y-87054806D02*
X180656073Y-86340520D01*
X180656073Y-86340520D02*
X180846549Y-87054806D01*
X180846549Y-87054806D02*
X181084645Y-86054806D01*
X181989406Y-87054806D02*
X181417978Y-87054806D01*
X181703692Y-87054806D02*
X181703692Y-86054806D01*
X181703692Y-86054806D02*
X181608454Y-86197663D01*
X181608454Y-86197663D02*
X181513216Y-86292901D01*
X181513216Y-86292901D02*
X181417978Y-86340520D01*
X182846549Y-86054806D02*
X182656073Y-86054806D01*
X182656073Y-86054806D02*
X182560835Y-86102425D01*
X182560835Y-86102425D02*
X182513216Y-86150044D01*
X182513216Y-86150044D02*
X182417978Y-86292901D01*
X182417978Y-86292901D02*
X182370359Y-86483377D01*
X182370359Y-86483377D02*
X182370359Y-86864329D01*
X182370359Y-86864329D02*
X182417978Y-86959567D01*
X182417978Y-86959567D02*
X182465597Y-87007187D01*
X182465597Y-87007187D02*
X182560835Y-87054806D01*
X182560835Y-87054806D02*
X182751311Y-87054806D01*
X182751311Y-87054806D02*
X182846549Y-87007187D01*
X182846549Y-87007187D02*
X182894168Y-86959567D01*
X182894168Y-86959567D02*
X182941787Y-86864329D01*
X182941787Y-86864329D02*
X182941787Y-86626234D01*
X182941787Y-86626234D02*
X182894168Y-86530996D01*
X182894168Y-86530996D02*
X182846549Y-86483377D01*
X182846549Y-86483377D02*
X182751311Y-86435758D01*
X182751311Y-86435758D02*
X182560835Y-86435758D01*
X182560835Y-86435758D02*
X182465597Y-86483377D01*
X182465597Y-86483377D02*
X182417978Y-86530996D01*
X182417978Y-86530996D02*
X182370359Y-86626234D01*
X179434581Y-54031925D02*
X179577438Y-54079544D01*
X179577438Y-54079544D02*
X179815533Y-54079544D01*
X179815533Y-54079544D02*
X179910771Y-54031925D01*
X179910771Y-54031925D02*
X179958390Y-53984305D01*
X179958390Y-53984305D02*
X180006009Y-53889067D01*
X180006009Y-53889067D02*
X180006009Y-53793829D01*
X180006009Y-53793829D02*
X179958390Y-53698591D01*
X179958390Y-53698591D02*
X179910771Y-53650972D01*
X179910771Y-53650972D02*
X179815533Y-53603353D01*
X179815533Y-53603353D02*
X179625057Y-53555734D01*
X179625057Y-53555734D02*
X179529819Y-53508115D01*
X179529819Y-53508115D02*
X179482200Y-53460496D01*
X179482200Y-53460496D02*
X179434581Y-53365258D01*
X179434581Y-53365258D02*
X179434581Y-53270020D01*
X179434581Y-53270020D02*
X179482200Y-53174782D01*
X179482200Y-53174782D02*
X179529819Y-53127163D01*
X179529819Y-53127163D02*
X179625057Y-53079544D01*
X179625057Y-53079544D02*
X179863152Y-53079544D01*
X179863152Y-53079544D02*
X180006009Y-53127163D01*
X180339343Y-53079544D02*
X180577438Y-54079544D01*
X180577438Y-54079544D02*
X180767914Y-53365258D01*
X180767914Y-53365258D02*
X180958390Y-54079544D01*
X180958390Y-54079544D02*
X181196486Y-53079544D01*
X182101247Y-54079544D02*
X181529819Y-54079544D01*
X181815533Y-54079544D02*
X181815533Y-53079544D01*
X181815533Y-53079544D02*
X181720295Y-53222401D01*
X181720295Y-53222401D02*
X181625057Y-53317639D01*
X181625057Y-53317639D02*
X181529819Y-53365258D01*
X182958390Y-53412877D02*
X182958390Y-54079544D01*
X182720295Y-53031925D02*
X182482200Y-53746210D01*
X182482200Y-53746210D02*
X183101247Y-53746210D01*
X179391132Y-37514392D02*
X179533989Y-37562011D01*
X179533989Y-37562011D02*
X179772084Y-37562011D01*
X179772084Y-37562011D02*
X179867322Y-37514392D01*
X179867322Y-37514392D02*
X179914941Y-37466772D01*
X179914941Y-37466772D02*
X179962560Y-37371534D01*
X179962560Y-37371534D02*
X179962560Y-37276296D01*
X179962560Y-37276296D02*
X179914941Y-37181058D01*
X179914941Y-37181058D02*
X179867322Y-37133439D01*
X179867322Y-37133439D02*
X179772084Y-37085820D01*
X179772084Y-37085820D02*
X179581608Y-37038201D01*
X179581608Y-37038201D02*
X179486370Y-36990582D01*
X179486370Y-36990582D02*
X179438751Y-36942963D01*
X179438751Y-36942963D02*
X179391132Y-36847725D01*
X179391132Y-36847725D02*
X179391132Y-36752487D01*
X179391132Y-36752487D02*
X179438751Y-36657249D01*
X179438751Y-36657249D02*
X179486370Y-36609630D01*
X179486370Y-36609630D02*
X179581608Y-36562011D01*
X179581608Y-36562011D02*
X179819703Y-36562011D01*
X179819703Y-36562011D02*
X179962560Y-36609630D01*
X180295894Y-36562011D02*
X180533989Y-37562011D01*
X180533989Y-37562011D02*
X180724465Y-36847725D01*
X180724465Y-36847725D02*
X180914941Y-37562011D01*
X180914941Y-37562011D02*
X181153037Y-36562011D01*
X182057798Y-37562011D02*
X181486370Y-37562011D01*
X181772084Y-37562011D02*
X181772084Y-36562011D01*
X181772084Y-36562011D02*
X181676846Y-36704868D01*
X181676846Y-36704868D02*
X181581608Y-36800106D01*
X181581608Y-36800106D02*
X181486370Y-36847725D01*
X182391132Y-36562011D02*
X183010179Y-36562011D01*
X183010179Y-36562011D02*
X182676846Y-36942963D01*
X182676846Y-36942963D02*
X182819703Y-36942963D01*
X182819703Y-36942963D02*
X182914941Y-36990582D01*
X182914941Y-36990582D02*
X182962560Y-37038201D01*
X182962560Y-37038201D02*
X183010179Y-37133439D01*
X183010179Y-37133439D02*
X183010179Y-37371534D01*
X183010179Y-37371534D02*
X182962560Y-37466772D01*
X182962560Y-37466772D02*
X182914941Y-37514392D01*
X182914941Y-37514392D02*
X182819703Y-37562011D01*
X182819703Y-37562011D02*
X182533989Y-37562011D01*
X182533989Y-37562011D02*
X182438751Y-37514392D01*
X182438751Y-37514392D02*
X182391132Y-37466772D01*
X195804159Y-54068419D02*
X195947016Y-54116038D01*
X195947016Y-54116038D02*
X196185111Y-54116038D01*
X196185111Y-54116038D02*
X196280349Y-54068419D01*
X196280349Y-54068419D02*
X196327968Y-54020799D01*
X196327968Y-54020799D02*
X196375587Y-53925561D01*
X196375587Y-53925561D02*
X196375587Y-53830323D01*
X196375587Y-53830323D02*
X196327968Y-53735085D01*
X196327968Y-53735085D02*
X196280349Y-53687466D01*
X196280349Y-53687466D02*
X196185111Y-53639847D01*
X196185111Y-53639847D02*
X195994635Y-53592228D01*
X195994635Y-53592228D02*
X195899397Y-53544609D01*
X195899397Y-53544609D02*
X195851778Y-53496990D01*
X195851778Y-53496990D02*
X195804159Y-53401752D01*
X195804159Y-53401752D02*
X195804159Y-53306514D01*
X195804159Y-53306514D02*
X195851778Y-53211276D01*
X195851778Y-53211276D02*
X195899397Y-53163657D01*
X195899397Y-53163657D02*
X195994635Y-53116038D01*
X195994635Y-53116038D02*
X196232730Y-53116038D01*
X196232730Y-53116038D02*
X196375587Y-53163657D01*
X196708921Y-53116038D02*
X196947016Y-54116038D01*
X196947016Y-54116038D02*
X197137492Y-53401752D01*
X197137492Y-53401752D02*
X197327968Y-54116038D01*
X197327968Y-54116038D02*
X197566064Y-53116038D01*
X198470825Y-54116038D02*
X197899397Y-54116038D01*
X198185111Y-54116038D02*
X198185111Y-53116038D01*
X198185111Y-53116038D02*
X198089873Y-53258895D01*
X198089873Y-53258895D02*
X197994635Y-53354133D01*
X197994635Y-53354133D02*
X197899397Y-53401752D01*
X199042254Y-53544609D02*
X198947016Y-53496990D01*
X198947016Y-53496990D02*
X198899397Y-53449371D01*
X198899397Y-53449371D02*
X198851778Y-53354133D01*
X198851778Y-53354133D02*
X198851778Y-53306514D01*
X198851778Y-53306514D02*
X198899397Y-53211276D01*
X198899397Y-53211276D02*
X198947016Y-53163657D01*
X198947016Y-53163657D02*
X199042254Y-53116038D01*
X199042254Y-53116038D02*
X199232730Y-53116038D01*
X199232730Y-53116038D02*
X199327968Y-53163657D01*
X199327968Y-53163657D02*
X199375587Y-53211276D01*
X199375587Y-53211276D02*
X199423206Y-53306514D01*
X199423206Y-53306514D02*
X199423206Y-53354133D01*
X199423206Y-53354133D02*
X199375587Y-53449371D01*
X199375587Y-53449371D02*
X199327968Y-53496990D01*
X199327968Y-53496990D02*
X199232730Y-53544609D01*
X199232730Y-53544609D02*
X199042254Y-53544609D01*
X199042254Y-53544609D02*
X198947016Y-53592228D01*
X198947016Y-53592228D02*
X198899397Y-53639847D01*
X198899397Y-53639847D02*
X198851778Y-53735085D01*
X198851778Y-53735085D02*
X198851778Y-53925561D01*
X198851778Y-53925561D02*
X198899397Y-54020799D01*
X198899397Y-54020799D02*
X198947016Y-54068419D01*
X198947016Y-54068419D02*
X199042254Y-54116038D01*
X199042254Y-54116038D02*
X199232730Y-54116038D01*
X199232730Y-54116038D02*
X199327968Y-54068419D01*
X199327968Y-54068419D02*
X199375587Y-54020799D01*
X199375587Y-54020799D02*
X199423206Y-53925561D01*
X199423206Y-53925561D02*
X199423206Y-53735085D01*
X199423206Y-53735085D02*
X199375587Y-53639847D01*
X199375587Y-53639847D02*
X199327968Y-53592228D01*
X199327968Y-53592228D02*
X199232730Y-53544609D01*
X179343852Y-70517107D02*
X179486709Y-70564726D01*
X179486709Y-70564726D02*
X179724804Y-70564726D01*
X179724804Y-70564726D02*
X179820042Y-70517107D01*
X179820042Y-70517107D02*
X179867661Y-70469487D01*
X179867661Y-70469487D02*
X179915280Y-70374249D01*
X179915280Y-70374249D02*
X179915280Y-70279011D01*
X179915280Y-70279011D02*
X179867661Y-70183773D01*
X179867661Y-70183773D02*
X179820042Y-70136154D01*
X179820042Y-70136154D02*
X179724804Y-70088535D01*
X179724804Y-70088535D02*
X179534328Y-70040916D01*
X179534328Y-70040916D02*
X179439090Y-69993297D01*
X179439090Y-69993297D02*
X179391471Y-69945678D01*
X179391471Y-69945678D02*
X179343852Y-69850440D01*
X179343852Y-69850440D02*
X179343852Y-69755202D01*
X179343852Y-69755202D02*
X179391471Y-69659964D01*
X179391471Y-69659964D02*
X179439090Y-69612345D01*
X179439090Y-69612345D02*
X179534328Y-69564726D01*
X179534328Y-69564726D02*
X179772423Y-69564726D01*
X179772423Y-69564726D02*
X179915280Y-69612345D01*
X180248614Y-69564726D02*
X180486709Y-70564726D01*
X180486709Y-70564726D02*
X180677185Y-69850440D01*
X180677185Y-69850440D02*
X180867661Y-70564726D01*
X180867661Y-70564726D02*
X181105757Y-69564726D01*
X182010518Y-70564726D02*
X181439090Y-70564726D01*
X181724804Y-70564726D02*
X181724804Y-69564726D01*
X181724804Y-69564726D02*
X181629566Y-69707583D01*
X181629566Y-69707583D02*
X181534328Y-69802821D01*
X181534328Y-69802821D02*
X181439090Y-69850440D01*
X182915280Y-69564726D02*
X182439090Y-69564726D01*
X182439090Y-69564726D02*
X182391471Y-70040916D01*
X182391471Y-70040916D02*
X182439090Y-69993297D01*
X182439090Y-69993297D02*
X182534328Y-69945678D01*
X182534328Y-69945678D02*
X182772423Y-69945678D01*
X182772423Y-69945678D02*
X182867661Y-69993297D01*
X182867661Y-69993297D02*
X182915280Y-70040916D01*
X182915280Y-70040916D02*
X182962899Y-70136154D01*
X182962899Y-70136154D02*
X182962899Y-70374249D01*
X182962899Y-70374249D02*
X182915280Y-70469487D01*
X182915280Y-70469487D02*
X182867661Y-70517107D01*
X182867661Y-70517107D02*
X182772423Y-70564726D01*
X182772423Y-70564726D02*
X182534328Y-70564726D01*
X182534328Y-70564726D02*
X182439090Y-70517107D01*
X182439090Y-70517107D02*
X182391471Y-70469487D01*
X163527249Y-37484300D02*
X163670106Y-37531919D01*
X163670106Y-37531919D02*
X163908201Y-37531919D01*
X163908201Y-37531919D02*
X164003439Y-37484300D01*
X164003439Y-37484300D02*
X164051058Y-37436680D01*
X164051058Y-37436680D02*
X164098677Y-37341442D01*
X164098677Y-37341442D02*
X164098677Y-37246204D01*
X164098677Y-37246204D02*
X164051058Y-37150966D01*
X164051058Y-37150966D02*
X164003439Y-37103347D01*
X164003439Y-37103347D02*
X163908201Y-37055728D01*
X163908201Y-37055728D02*
X163717725Y-37008109D01*
X163717725Y-37008109D02*
X163622487Y-36960490D01*
X163622487Y-36960490D02*
X163574868Y-36912871D01*
X163574868Y-36912871D02*
X163527249Y-36817633D01*
X163527249Y-36817633D02*
X163527249Y-36722395D01*
X163527249Y-36722395D02*
X163574868Y-36627157D01*
X163574868Y-36627157D02*
X163622487Y-36579538D01*
X163622487Y-36579538D02*
X163717725Y-36531919D01*
X163717725Y-36531919D02*
X163955820Y-36531919D01*
X163955820Y-36531919D02*
X164098677Y-36579538D01*
X164432011Y-36531919D02*
X164670106Y-37531919D01*
X164670106Y-37531919D02*
X164860582Y-36817633D01*
X164860582Y-36817633D02*
X165051058Y-37531919D01*
X165051058Y-37531919D02*
X165289154Y-36531919D01*
X165717725Y-37531919D02*
X165908201Y-37531919D01*
X165908201Y-37531919D02*
X166003439Y-37484300D01*
X166003439Y-37484300D02*
X166051058Y-37436680D01*
X166051058Y-37436680D02*
X166146296Y-37293823D01*
X166146296Y-37293823D02*
X166193915Y-37103347D01*
X166193915Y-37103347D02*
X166193915Y-36722395D01*
X166193915Y-36722395D02*
X166146296Y-36627157D01*
X166146296Y-36627157D02*
X166098677Y-36579538D01*
X166098677Y-36579538D02*
X166003439Y-36531919D01*
X166003439Y-36531919D02*
X165812963Y-36531919D01*
X165812963Y-36531919D02*
X165717725Y-36579538D01*
X165717725Y-36579538D02*
X165670106Y-36627157D01*
X165670106Y-36627157D02*
X165622487Y-36722395D01*
X165622487Y-36722395D02*
X165622487Y-36960490D01*
X165622487Y-36960490D02*
X165670106Y-37055728D01*
X165670106Y-37055728D02*
X165717725Y-37103347D01*
X165717725Y-37103347D02*
X165812963Y-37150966D01*
X165812963Y-37150966D02*
X166003439Y-37150966D01*
X166003439Y-37150966D02*
X166098677Y-37103347D01*
X166098677Y-37103347D02*
X166146296Y-37055728D01*
X166146296Y-37055728D02*
X166193915Y-36960490D01*
X163008278Y-53922187D02*
X163151135Y-53969806D01*
X163151135Y-53969806D02*
X163389230Y-53969806D01*
X163389230Y-53969806D02*
X163484468Y-53922187D01*
X163484468Y-53922187D02*
X163532087Y-53874567D01*
X163532087Y-53874567D02*
X163579706Y-53779329D01*
X163579706Y-53779329D02*
X163579706Y-53684091D01*
X163579706Y-53684091D02*
X163532087Y-53588853D01*
X163532087Y-53588853D02*
X163484468Y-53541234D01*
X163484468Y-53541234D02*
X163389230Y-53493615D01*
X163389230Y-53493615D02*
X163198754Y-53445996D01*
X163198754Y-53445996D02*
X163103516Y-53398377D01*
X163103516Y-53398377D02*
X163055897Y-53350758D01*
X163055897Y-53350758D02*
X163008278Y-53255520D01*
X163008278Y-53255520D02*
X163008278Y-53160282D01*
X163008278Y-53160282D02*
X163055897Y-53065044D01*
X163055897Y-53065044D02*
X163103516Y-53017425D01*
X163103516Y-53017425D02*
X163198754Y-52969806D01*
X163198754Y-52969806D02*
X163436849Y-52969806D01*
X163436849Y-52969806D02*
X163579706Y-53017425D01*
X163913040Y-52969806D02*
X164151135Y-53969806D01*
X164151135Y-53969806D02*
X164341611Y-53255520D01*
X164341611Y-53255520D02*
X164532087Y-53969806D01*
X164532087Y-53969806D02*
X164770183Y-52969806D01*
X165674944Y-53969806D02*
X165103516Y-53969806D01*
X165389230Y-53969806D02*
X165389230Y-52969806D01*
X165389230Y-52969806D02*
X165293992Y-53112663D01*
X165293992Y-53112663D02*
X165198754Y-53207901D01*
X165198754Y-53207901D02*
X165103516Y-53255520D01*
X166293992Y-52969806D02*
X166389230Y-52969806D01*
X166389230Y-52969806D02*
X166484468Y-53017425D01*
X166484468Y-53017425D02*
X166532087Y-53065044D01*
X166532087Y-53065044D02*
X166579706Y-53160282D01*
X166579706Y-53160282D02*
X166627325Y-53350758D01*
X166627325Y-53350758D02*
X166627325Y-53588853D01*
X166627325Y-53588853D02*
X166579706Y-53779329D01*
X166579706Y-53779329D02*
X166532087Y-53874567D01*
X166532087Y-53874567D02*
X166484468Y-53922187D01*
X166484468Y-53922187D02*
X166389230Y-53969806D01*
X166389230Y-53969806D02*
X166293992Y-53969806D01*
X166293992Y-53969806D02*
X166198754Y-53922187D01*
X166198754Y-53922187D02*
X166151135Y-53874567D01*
X166151135Y-53874567D02*
X166103516Y-53779329D01*
X166103516Y-53779329D02*
X166055897Y-53588853D01*
X166055897Y-53588853D02*
X166055897Y-53350758D01*
X166055897Y-53350758D02*
X166103516Y-53160282D01*
X166103516Y-53160282D02*
X166151135Y-53065044D01*
X166151135Y-53065044D02*
X166198754Y-53017425D01*
X166198754Y-53017425D02*
X166293992Y-52969806D01*
X212229061Y-37430568D02*
X212371918Y-37478187D01*
X212371918Y-37478187D02*
X212610013Y-37478187D01*
X212610013Y-37478187D02*
X212705251Y-37430568D01*
X212705251Y-37430568D02*
X212752870Y-37382948D01*
X212752870Y-37382948D02*
X212800489Y-37287710D01*
X212800489Y-37287710D02*
X212800489Y-37192472D01*
X212800489Y-37192472D02*
X212752870Y-37097234D01*
X212752870Y-37097234D02*
X212705251Y-37049615D01*
X212705251Y-37049615D02*
X212610013Y-37001996D01*
X212610013Y-37001996D02*
X212419537Y-36954377D01*
X212419537Y-36954377D02*
X212324299Y-36906758D01*
X212324299Y-36906758D02*
X212276680Y-36859139D01*
X212276680Y-36859139D02*
X212229061Y-36763901D01*
X212229061Y-36763901D02*
X212229061Y-36668663D01*
X212229061Y-36668663D02*
X212276680Y-36573425D01*
X212276680Y-36573425D02*
X212324299Y-36525806D01*
X212324299Y-36525806D02*
X212419537Y-36478187D01*
X212419537Y-36478187D02*
X212657632Y-36478187D01*
X212657632Y-36478187D02*
X212800489Y-36525806D01*
X213133823Y-36478187D02*
X213371918Y-37478187D01*
X213371918Y-37478187D02*
X213562394Y-36763901D01*
X213562394Y-36763901D02*
X213752870Y-37478187D01*
X213752870Y-37478187D02*
X213990966Y-36478187D01*
X214324299Y-36573425D02*
X214371918Y-36525806D01*
X214371918Y-36525806D02*
X214467156Y-36478187D01*
X214467156Y-36478187D02*
X214705251Y-36478187D01*
X214705251Y-36478187D02*
X214800489Y-36525806D01*
X214800489Y-36525806D02*
X214848108Y-36573425D01*
X214848108Y-36573425D02*
X214895727Y-36668663D01*
X214895727Y-36668663D02*
X214895727Y-36763901D01*
X214895727Y-36763901D02*
X214848108Y-36906758D01*
X214848108Y-36906758D02*
X214276680Y-37478187D01*
X214276680Y-37478187D02*
X214895727Y-37478187D01*
X215848108Y-37478187D02*
X215276680Y-37478187D01*
X215562394Y-37478187D02*
X215562394Y-36478187D01*
X215562394Y-36478187D02*
X215467156Y-36621044D01*
X215467156Y-36621044D02*
X215371918Y-36716282D01*
X215371918Y-36716282D02*
X215276680Y-36763901D01*
X195740283Y-37187206D02*
X195883140Y-37234825D01*
X195883140Y-37234825D02*
X196121235Y-37234825D01*
X196121235Y-37234825D02*
X196216473Y-37187206D01*
X196216473Y-37187206D02*
X196264092Y-37139586D01*
X196264092Y-37139586D02*
X196311711Y-37044348D01*
X196311711Y-37044348D02*
X196311711Y-36949110D01*
X196311711Y-36949110D02*
X196264092Y-36853872D01*
X196264092Y-36853872D02*
X196216473Y-36806253D01*
X196216473Y-36806253D02*
X196121235Y-36758634D01*
X196121235Y-36758634D02*
X195930759Y-36711015D01*
X195930759Y-36711015D02*
X195835521Y-36663396D01*
X195835521Y-36663396D02*
X195787902Y-36615777D01*
X195787902Y-36615777D02*
X195740283Y-36520539D01*
X195740283Y-36520539D02*
X195740283Y-36425301D01*
X195740283Y-36425301D02*
X195787902Y-36330063D01*
X195787902Y-36330063D02*
X195835521Y-36282444D01*
X195835521Y-36282444D02*
X195930759Y-36234825D01*
X195930759Y-36234825D02*
X196168854Y-36234825D01*
X196168854Y-36234825D02*
X196311711Y-36282444D01*
X196645045Y-36234825D02*
X196883140Y-37234825D01*
X196883140Y-37234825D02*
X197073616Y-36520539D01*
X197073616Y-36520539D02*
X197264092Y-37234825D01*
X197264092Y-37234825D02*
X197502188Y-36234825D01*
X198406949Y-37234825D02*
X197835521Y-37234825D01*
X198121235Y-37234825D02*
X198121235Y-36234825D01*
X198121235Y-36234825D02*
X198025997Y-36377682D01*
X198025997Y-36377682D02*
X197930759Y-36472920D01*
X197930759Y-36472920D02*
X197835521Y-36520539D01*
X198740283Y-36234825D02*
X199406949Y-36234825D01*
X199406949Y-36234825D02*
X198978378Y-37234825D01*
X212302488Y-54055122D02*
X212445345Y-54102741D01*
X212445345Y-54102741D02*
X212683440Y-54102741D01*
X212683440Y-54102741D02*
X212778678Y-54055122D01*
X212778678Y-54055122D02*
X212826297Y-54007502D01*
X212826297Y-54007502D02*
X212873916Y-53912264D01*
X212873916Y-53912264D02*
X212873916Y-53817026D01*
X212873916Y-53817026D02*
X212826297Y-53721788D01*
X212826297Y-53721788D02*
X212778678Y-53674169D01*
X212778678Y-53674169D02*
X212683440Y-53626550D01*
X212683440Y-53626550D02*
X212492964Y-53578931D01*
X212492964Y-53578931D02*
X212397726Y-53531312D01*
X212397726Y-53531312D02*
X212350107Y-53483693D01*
X212350107Y-53483693D02*
X212302488Y-53388455D01*
X212302488Y-53388455D02*
X212302488Y-53293217D01*
X212302488Y-53293217D02*
X212350107Y-53197979D01*
X212350107Y-53197979D02*
X212397726Y-53150360D01*
X212397726Y-53150360D02*
X212492964Y-53102741D01*
X212492964Y-53102741D02*
X212731059Y-53102741D01*
X212731059Y-53102741D02*
X212873916Y-53150360D01*
X213207250Y-53102741D02*
X213445345Y-54102741D01*
X213445345Y-54102741D02*
X213635821Y-53388455D01*
X213635821Y-53388455D02*
X213826297Y-54102741D01*
X213826297Y-54102741D02*
X214064393Y-53102741D01*
X214397726Y-53197979D02*
X214445345Y-53150360D01*
X214445345Y-53150360D02*
X214540583Y-53102741D01*
X214540583Y-53102741D02*
X214778678Y-53102741D01*
X214778678Y-53102741D02*
X214873916Y-53150360D01*
X214873916Y-53150360D02*
X214921535Y-53197979D01*
X214921535Y-53197979D02*
X214969154Y-53293217D01*
X214969154Y-53293217D02*
X214969154Y-53388455D01*
X214969154Y-53388455D02*
X214921535Y-53531312D01*
X214921535Y-53531312D02*
X214350107Y-54102741D01*
X214350107Y-54102741D02*
X214969154Y-54102741D01*
X215350107Y-53197979D02*
X215397726Y-53150360D01*
X215397726Y-53150360D02*
X215492964Y-53102741D01*
X215492964Y-53102741D02*
X215731059Y-53102741D01*
X215731059Y-53102741D02*
X215826297Y-53150360D01*
X215826297Y-53150360D02*
X215873916Y-53197979D01*
X215873916Y-53197979D02*
X215921535Y-53293217D01*
X215921535Y-53293217D02*
X215921535Y-53388455D01*
X215921535Y-53388455D02*
X215873916Y-53531312D01*
X215873916Y-53531312D02*
X215302488Y-54102741D01*
X215302488Y-54102741D02*
X215921535Y-54102741D01*
X195754536Y-87111185D02*
X195897393Y-87158804D01*
X195897393Y-87158804D02*
X196135488Y-87158804D01*
X196135488Y-87158804D02*
X196230726Y-87111185D01*
X196230726Y-87111185D02*
X196278345Y-87063565D01*
X196278345Y-87063565D02*
X196325964Y-86968327D01*
X196325964Y-86968327D02*
X196325964Y-86873089D01*
X196325964Y-86873089D02*
X196278345Y-86777851D01*
X196278345Y-86777851D02*
X196230726Y-86730232D01*
X196230726Y-86730232D02*
X196135488Y-86682613D01*
X196135488Y-86682613D02*
X195945012Y-86634994D01*
X195945012Y-86634994D02*
X195849774Y-86587375D01*
X195849774Y-86587375D02*
X195802155Y-86539756D01*
X195802155Y-86539756D02*
X195754536Y-86444518D01*
X195754536Y-86444518D02*
X195754536Y-86349280D01*
X195754536Y-86349280D02*
X195802155Y-86254042D01*
X195802155Y-86254042D02*
X195849774Y-86206423D01*
X195849774Y-86206423D02*
X195945012Y-86158804D01*
X195945012Y-86158804D02*
X196183107Y-86158804D01*
X196183107Y-86158804D02*
X196325964Y-86206423D01*
X196659298Y-86158804D02*
X196897393Y-87158804D01*
X196897393Y-87158804D02*
X197087869Y-86444518D01*
X197087869Y-86444518D02*
X197278345Y-87158804D01*
X197278345Y-87158804D02*
X197516441Y-86158804D01*
X197849774Y-86254042D02*
X197897393Y-86206423D01*
X197897393Y-86206423D02*
X197992631Y-86158804D01*
X197992631Y-86158804D02*
X198230726Y-86158804D01*
X198230726Y-86158804D02*
X198325964Y-86206423D01*
X198325964Y-86206423D02*
X198373583Y-86254042D01*
X198373583Y-86254042D02*
X198421202Y-86349280D01*
X198421202Y-86349280D02*
X198421202Y-86444518D01*
X198421202Y-86444518D02*
X198373583Y-86587375D01*
X198373583Y-86587375D02*
X197802155Y-87158804D01*
X197802155Y-87158804D02*
X198421202Y-87158804D01*
X199040250Y-86158804D02*
X199135488Y-86158804D01*
X199135488Y-86158804D02*
X199230726Y-86206423D01*
X199230726Y-86206423D02*
X199278345Y-86254042D01*
X199278345Y-86254042D02*
X199325964Y-86349280D01*
X199325964Y-86349280D02*
X199373583Y-86539756D01*
X199373583Y-86539756D02*
X199373583Y-86777851D01*
X199373583Y-86777851D02*
X199325964Y-86968327D01*
X199325964Y-86968327D02*
X199278345Y-87063565D01*
X199278345Y-87063565D02*
X199230726Y-87111185D01*
X199230726Y-87111185D02*
X199135488Y-87158804D01*
X199135488Y-87158804D02*
X199040250Y-87158804D01*
X199040250Y-87158804D02*
X198945012Y-87111185D01*
X198945012Y-87111185D02*
X198897393Y-87063565D01*
X198897393Y-87063565D02*
X198849774Y-86968327D01*
X198849774Y-86968327D02*
X198802155Y-86777851D01*
X198802155Y-86777851D02*
X198802155Y-86539756D01*
X198802155Y-86539756D02*
X198849774Y-86349280D01*
X198849774Y-86349280D02*
X198897393Y-86254042D01*
X198897393Y-86254042D02*
X198945012Y-86206423D01*
X198945012Y-86206423D02*
X199040250Y-86158804D01*
D11*
%TO.C,SW11*%
X157700000Y-59300000D02*
X157700000Y-73500000D01*
X157700000Y-73500000D02*
X171900000Y-73500000D01*
X171900000Y-59300000D02*
X157700000Y-59300000D01*
X171900000Y-73500000D02*
X171900000Y-59300000D01*
%TO.C,SW23*%
X206900000Y-59300000D02*
X206900000Y-73500000D01*
X206900000Y-73500000D02*
X221100000Y-73500000D01*
X221100000Y-59300000D02*
X206900000Y-59300000D01*
X221100000Y-73500000D02*
X221100000Y-59300000D01*
%TO.C,SW19*%
X190500000Y-59300000D02*
X190500000Y-73500000D01*
X190500000Y-73500000D02*
X204700000Y-73500000D01*
X204700000Y-59300000D02*
X190500000Y-59300000D01*
X204700000Y-73500000D02*
X204700000Y-59300000D01*
%TO.C,SW24*%
X206900000Y-75700000D02*
X206900000Y-89900000D01*
X206900000Y-89900000D02*
X221100000Y-89900000D01*
X221100000Y-75700000D02*
X206900000Y-75700000D01*
X221100000Y-89900000D02*
X221100000Y-75700000D01*
%TO.C,SW12*%
X157700000Y-75700000D02*
X157700000Y-89900000D01*
X157700000Y-89900000D02*
X171900000Y-89900000D01*
X171900000Y-75700000D02*
X157700000Y-75700000D01*
X171900000Y-89900000D02*
X171900000Y-75700000D01*
%TO.C,SW16*%
X174100000Y-75700000D02*
X174100000Y-89900000D01*
X174100000Y-89900000D02*
X188300000Y-89900000D01*
X188300000Y-75700000D02*
X174100000Y-75700000D01*
X188300000Y-89900000D02*
X188300000Y-75700000D01*
%TO.C,SW14*%
X174100000Y-42900000D02*
X174100000Y-57100000D01*
X174100000Y-57100000D02*
X188300000Y-57100000D01*
X188300000Y-42900000D02*
X174100000Y-42900000D01*
X188300000Y-57100000D02*
X188300000Y-42900000D01*
%TO.C,SW13*%
X174100000Y-26500000D02*
X174100000Y-40700000D01*
X174100000Y-40700000D02*
X188300000Y-40700000D01*
X188300000Y-26500000D02*
X174100000Y-26500000D01*
X188300000Y-40700000D02*
X188300000Y-26500000D01*
%TO.C,SW18*%
X204700000Y-57100000D02*
X204700000Y-42900000D01*
X204700000Y-42900000D02*
X190500000Y-42900000D01*
X190500000Y-57100000D02*
X204700000Y-57100000D01*
X190500000Y-42900000D02*
X190500000Y-57100000D01*
%TO.C,SW15*%
X174100000Y-59300000D02*
X174100000Y-73500000D01*
X174100000Y-73500000D02*
X188300000Y-73500000D01*
X188300000Y-59300000D02*
X174100000Y-59300000D01*
X188300000Y-73500000D02*
X188300000Y-59300000D01*
%TO.C,SW9*%
X157700000Y-26500000D02*
X157700000Y-40700000D01*
X157700000Y-40700000D02*
X171900000Y-40700000D01*
X171900000Y-26500000D02*
X157700000Y-26500000D01*
X171900000Y-40700000D02*
X171900000Y-26500000D01*
%TO.C,SW10*%
X157700000Y-42900000D02*
X157700000Y-57100000D01*
X157700000Y-57100000D02*
X171900000Y-57100000D01*
X171900000Y-42900000D02*
X157700000Y-42900000D01*
X171900000Y-57100000D02*
X171900000Y-42900000D01*
%TO.C,SW21*%
X206900000Y-26500000D02*
X206900000Y-40700000D01*
X206900000Y-40700000D02*
X221100000Y-40700000D01*
X221100000Y-26500000D02*
X206900000Y-26500000D01*
X221100000Y-40700000D02*
X221100000Y-26500000D01*
%TO.C,SW17*%
X190500000Y-26500000D02*
X190500000Y-40700000D01*
X190500000Y-40700000D02*
X204700000Y-40700000D01*
X204700000Y-26500000D02*
X190500000Y-26500000D01*
X204700000Y-40700000D02*
X204700000Y-26500000D01*
%TO.C,SW22*%
X206900000Y-42900000D02*
X206900000Y-57100000D01*
X206900000Y-57100000D02*
X221100000Y-57100000D01*
X221100000Y-42900000D02*
X206900000Y-42900000D01*
X221100000Y-57100000D02*
X221100000Y-42900000D01*
%TO.C,SW20*%
X204700000Y-89900000D02*
X204700000Y-75700000D01*
X204700000Y-75700000D02*
X190500000Y-75700000D01*
X190500000Y-89900000D02*
X204700000Y-89900000D01*
X190500000Y-75700000D02*
X190500000Y-89900000D01*
%TD*%
M02*
