%TF.GenerationSoftware,KiCad,Pcbnew,7.0.8*%
%TF.CreationDate,2023-10-13T15:36:56+03:00*%
%TF.ProjectId,4x4_switch,3478345f-7377-4697-9463-682e6b696361,rev?*%
%TF.SameCoordinates,Original*%
%TF.FileFunction,Copper,L2,Bot*%
%TF.FilePolarity,Positive*%
%FSLAX46Y46*%
G04 Gerber Fmt 4.6, Leading zero omitted, Abs format (unit mm)*
G04 Created by KiCad (PCBNEW 7.0.8) date 2023-10-13 15:36:56*
%MOMM*%
%LPD*%
G01*
G04 APERTURE LIST*
G04 Aperture macros list*
%AMRoundRect*
0 Rectangle with rounded corners*
0 $1 Rounding radius*
0 $2 $3 $4 $5 $6 $7 $8 $9 X,Y pos of 4 corners*
0 Add a 4 corners polygon primitive as box body*
4,1,4,$2,$3,$4,$5,$6,$7,$8,$9,$2,$3,0*
0 Add four circle primitives for the rounded corners*
1,1,$1+$1,$2,$3*
1,1,$1+$1,$4,$5*
1,1,$1+$1,$6,$7*
1,1,$1+$1,$8,$9*
0 Add four rect primitives between the rounded corners*
20,1,$1+$1,$2,$3,$4,$5,0*
20,1,$1+$1,$4,$5,$6,$7,0*
20,1,$1+$1,$6,$7,$8,$9,0*
20,1,$1+$1,$8,$9,$2,$3,0*%
G04 Aperture macros list end*
%TA.AperFunction,SMDPad,CuDef*%
%ADD10RoundRect,0.237500X0.250000X0.237500X-0.250000X0.237500X-0.250000X-0.237500X0.250000X-0.237500X0*%
%TD*%
%TA.AperFunction,SMDPad,CuDef*%
%ADD11R,1.800000X1.100000*%
%TD*%
%TA.AperFunction,ComponentPad*%
%ADD12R,1.350000X1.350000*%
%TD*%
%TA.AperFunction,ComponentPad*%
%ADD13O,1.350000X1.350000*%
%TD*%
%TA.AperFunction,SMDPad,CuDef*%
%ADD14RoundRect,0.237500X-0.250000X-0.237500X0.250000X-0.237500X0.250000X0.237500X-0.250000X0.237500X0*%
%TD*%
%TA.AperFunction,SMDPad,CuDef*%
%ADD15R,1.560000X0.650000*%
%TD*%
%TA.AperFunction,SMDPad,CuDef*%
%ADD16RoundRect,0.100000X0.100000X-0.637500X0.100000X0.637500X-0.100000X0.637500X-0.100000X-0.637500X0*%
%TD*%
%TA.AperFunction,SMDPad,CuDef*%
%ADD17RoundRect,0.150000X0.825000X0.150000X-0.825000X0.150000X-0.825000X-0.150000X0.825000X-0.150000X0*%
%TD*%
%TA.AperFunction,SMDPad,CuDef*%
%ADD18R,2.290000X3.000000*%
%TD*%
%TA.AperFunction,SMDPad,CuDef*%
%ADD19RoundRect,0.237500X0.237500X-0.250000X0.237500X0.250000X-0.237500X0.250000X-0.237500X-0.250000X0*%
%TD*%
%TA.AperFunction,SMDPad,CuDef*%
%ADD20RoundRect,0.237500X-0.237500X0.250000X-0.237500X-0.250000X0.237500X-0.250000X0.237500X0.250000X0*%
%TD*%
%TA.AperFunction,SMDPad,CuDef*%
%ADD21RoundRect,0.237500X0.237500X-0.300000X0.237500X0.300000X-0.237500X0.300000X-0.237500X-0.300000X0*%
%TD*%
%TA.AperFunction,SMDPad,CuDef*%
%ADD22RoundRect,0.237500X0.300000X0.237500X-0.300000X0.237500X-0.300000X-0.237500X0.300000X-0.237500X0*%
%TD*%
%TA.AperFunction,ComponentPad*%
%ADD23R,1.700000X1.700000*%
%TD*%
%TA.AperFunction,ComponentPad*%
%ADD24O,1.700000X1.700000*%
%TD*%
%TA.AperFunction,SMDPad,CuDef*%
%ADD25R,1.000000X1.150000*%
%TD*%
%TA.AperFunction,SMDPad,CuDef*%
%ADD26RoundRect,0.237500X-0.010901X-0.382475X0.374772X0.077151X0.010901X0.382475X-0.374772X-0.077151X0*%
%TD*%
%TA.AperFunction,SMDPad,CuDef*%
%ADD27RoundRect,0.237500X-0.237500X0.300000X-0.237500X-0.300000X0.237500X-0.300000X0.237500X0.300000X0*%
%TD*%
%TA.AperFunction,SMDPad,CuDef*%
%ADD28RoundRect,0.250000X-1.025000X-1.000000X1.025000X-1.000000X1.025000X1.000000X-1.025000X1.000000X0*%
%TD*%
%TA.AperFunction,SMDPad,CuDef*%
%ADD29RoundRect,0.150000X0.587500X0.150000X-0.587500X0.150000X-0.587500X-0.150000X0.587500X-0.150000X0*%
%TD*%
%TA.AperFunction,SMDPad,CuDef*%
%ADD30RoundRect,0.237500X-0.300000X-0.237500X0.300000X-0.237500X0.300000X0.237500X-0.300000X0.237500X0*%
%TD*%
%TA.AperFunction,SMDPad,CuDef*%
%ADD31R,0.600000X1.450000*%
%TD*%
%TA.AperFunction,SMDPad,CuDef*%
%ADD32R,0.300000X1.450000*%
%TD*%
%TA.AperFunction,ComponentPad*%
%ADD33O,1.000000X1.600000*%
%TD*%
%TA.AperFunction,ComponentPad*%
%ADD34O,1.000000X2.100000*%
%TD*%
%TA.AperFunction,SMDPad,CuDef*%
%ADD35RoundRect,0.150000X0.512500X0.150000X-0.512500X0.150000X-0.512500X-0.150000X0.512500X-0.150000X0*%
%TD*%
%TA.AperFunction,SMDPad,CuDef*%
%ADD36RoundRect,0.075000X-0.075000X0.662500X-0.075000X-0.662500X0.075000X-0.662500X0.075000X0.662500X0*%
%TD*%
%TA.AperFunction,SMDPad,CuDef*%
%ADD37RoundRect,0.075000X-0.662500X0.075000X-0.662500X-0.075000X0.662500X-0.075000X0.662500X0.075000X0*%
%TD*%
%TA.AperFunction,ViaPad*%
%ADD38C,0.800000*%
%TD*%
%TA.AperFunction,Conductor*%
%ADD39C,0.300000*%
%TD*%
%TA.AperFunction,Conductor*%
%ADD40C,0.500000*%
%TD*%
%TA.AperFunction,Conductor*%
%ADD41C,0.250000*%
%TD*%
G04 APERTURE END LIST*
D10*
%TO.P,R11,1*%
%TO.N,+3.3V*%
X179261852Y-74831610D03*
%TO.P,R11,2*%
%TO.N,Net-(U2-PB5)*%
X177436852Y-74831610D03*
%TD*%
D11*
%TO.P,SW1,1*%
%TO.N,GND*%
X167613812Y-90383871D03*
X161413812Y-90383871D03*
%TO.P,SW1,2*%
%TO.N,Net-(U2-PB5)*%
X161413812Y-86683871D03*
X167613812Y-86683871D03*
%TD*%
D12*
%TO.P,J1,1,Pin_1*%
%TO.N,-BATT*%
X219853622Y-81312027D03*
D13*
%TO.P,J1,2,Pin_2*%
%TO.N,+BATT*%
X221853622Y-81312027D03*
%TD*%
D14*
%TO.P,R10,1*%
%TO.N,+BATT*%
X203189911Y-83556128D03*
%TO.P,R10,2*%
%TO.N,+5V*%
X205014911Y-83556128D03*
%TD*%
D15*
%TO.P,U6,1,OD*%
%TO.N,Net-(U5-Gate_1)*%
X215683220Y-91166987D03*
%TO.P,U6,2,CS*%
%TO.N,Net-(U6-CS)*%
X215683220Y-90216987D03*
%TO.P,U6,3,OC*%
%TO.N,Net-(U5-Gate_2)*%
X215683220Y-89266987D03*
%TO.P,U6,4,TD*%
%TO.N,unconnected-(U6-TD-Pad4)*%
X218383220Y-89266987D03*
%TO.P,U6,5,VCC*%
%TO.N,Net-(U6-VCC)*%
X218383220Y-90216987D03*
%TO.P,U6,6,GND*%
%TO.N,-BATT*%
X218383220Y-91166987D03*
%TD*%
D16*
%TO.P,U5,1,Drain*%
%TO.N,unconnected-(U5-Drain-Pad1)*%
X222260687Y-89600616D03*
%TO.P,U5,2,Source_1*%
%TO.N,-BATT*%
X221610687Y-89600616D03*
%TO.P,U5,3,Source_1*%
X220960687Y-89600616D03*
%TO.P,U5,4,Gate_1*%
%TO.N,Net-(U5-Gate_1)*%
X220310687Y-89600616D03*
%TO.P,U5,5,Gate_2*%
%TO.N,Net-(U5-Gate_2)*%
X220310687Y-83875616D03*
%TO.P,U5,6,Source_2*%
%TO.N,GND*%
X220960687Y-83875616D03*
%TO.P,U5,7,Source_2*%
X221610687Y-83875616D03*
%TO.P,U5,8,Drain*%
%TO.N,unconnected-(U5-Drain-Pad8)*%
X222260687Y-83875616D03*
%TD*%
D17*
%TO.P,U4,1,TEMP*%
%TO.N,GND*%
X211607217Y-85630769D03*
%TO.P,U4,2,PROG*%
%TO.N,Net-(U4-PROG)*%
X211607217Y-86900769D03*
%TO.P,U4,3,GND*%
%TO.N,GND*%
X211607217Y-88170769D03*
%TO.P,U4,4,VCC*%
%TO.N,+5V*%
X211607217Y-89440769D03*
%TO.P,U4,5,BAT*%
%TO.N,+BATT*%
X206657217Y-89440769D03*
%TO.P,U4,6,~{STDBY}*%
%TO.N,unconnected-(U4-~{STDBY}-Pad6)*%
X206657217Y-88170769D03*
%TO.P,U4,7,~{CHRG}*%
%TO.N,unconnected-(U4-~{CHRG}-Pad7)*%
X206657217Y-86900769D03*
%TO.P,U4,8,CE*%
%TO.N,+5V*%
X206657217Y-85630769D03*
D18*
%TO.P,U4,9,PP*%
%TO.N,GND*%
X209132217Y-87535769D03*
%TD*%
D19*
%TO.P,R16,1*%
%TO.N,Net-(U1-VOUT)*%
X201025786Y-83683412D03*
%TO.P,R16,2*%
%TO.N,+3.3V*%
X201025786Y-81858412D03*
%TD*%
D20*
%TO.P,R15,1*%
%TO.N,+BATT*%
X217024745Y-85676695D03*
%TO.P,R15,2*%
%TO.N,Net-(U6-VCC)*%
X217024745Y-87501695D03*
%TD*%
D14*
%TO.P,R14,1*%
%TO.N,GND*%
X211771103Y-91111939D03*
%TO.P,R14,2*%
%TO.N,Net-(U6-CS)*%
X213596103Y-91111939D03*
%TD*%
D19*
%TO.P,R13,1*%
%TO.N,GND*%
X213773559Y-88567528D03*
%TO.P,R13,2*%
%TO.N,Net-(U4-PROG)*%
X213773559Y-86742528D03*
%TD*%
D21*
%TO.P,C15,1*%
%TO.N,Net-(U6-VCC)*%
X218626643Y-87486811D03*
%TO.P,C15,2*%
%TO.N,-BATT*%
X218626643Y-85761811D03*
%TD*%
D22*
%TO.P,C14,1*%
%TO.N,+5V*%
X210010636Y-91119945D03*
%TO.P,C14,2*%
%TO.N,GND*%
X208285636Y-91119945D03*
%TD*%
D14*
%TO.P,R9,1*%
%TO.N,Net-(P1-D+)*%
X189675073Y-82925137D03*
%TO.P,R9,2*%
%TO.N,+3.3V*%
X191500073Y-82925137D03*
%TD*%
D23*
%TO.P,J2,1,Pin_1*%
%TO.N,GND*%
X177155948Y-90157813D03*
D24*
%TO.P,J2,2,Pin_2*%
%TO.N,SWCLK*%
X174615948Y-90157813D03*
%TO.P,J2,3,Pin_3*%
%TO.N,SWDIO*%
X172075948Y-90157813D03*
%TD*%
D20*
%TO.P,R8,1*%
%TO.N,USB_D+*%
X188092813Y-81068516D03*
%TO.P,R8,2*%
%TO.N,Net-(P1-D+)*%
X188092813Y-82893516D03*
%TD*%
%TO.P,R7,1*%
%TO.N,USB_D-*%
X186464342Y-81052706D03*
%TO.P,R7,2*%
%TO.N,Net-(P1-D-)*%
X186464342Y-82877706D03*
%TD*%
D14*
%TO.P,R2,1*%
%TO.N,GND*%
X180334577Y-88153051D03*
%TO.P,R2,2*%
%TO.N,Net-(P1-VCONN)*%
X182159577Y-88153051D03*
%TD*%
%TO.P,R1,1*%
%TO.N,GND*%
X180329112Y-89810463D03*
%TO.P,R1,2*%
%TO.N,Net-(P1-CC)*%
X182154112Y-89810463D03*
%TD*%
D25*
%TO.P,Y1,1,1*%
%TO.N,osc2*%
X185647378Y-64665096D03*
%TO.P,Y1,2,2*%
%TO.N,osc1*%
X185647378Y-66415096D03*
%TO.P,Y1,3*%
%TO.N,N/C*%
X184247378Y-66415096D03*
%TO.P,Y1,4*%
X184247378Y-64665096D03*
%TD*%
D26*
%TO.P,C10,1*%
%TO.N,osc2*%
X186875817Y-65121234D03*
%TO.P,C10,2*%
%TO.N,GND*%
X187984625Y-63799808D03*
%TD*%
D27*
%TO.P,C9,1*%
%TO.N,osc1*%
X183902587Y-68088190D03*
%TO.P,C9,2*%
%TO.N,GND*%
X183902587Y-69813190D03*
%TD*%
D28*
%TO.P,SW11,1*%
%TO.N,Net-(D6-Pad1)*%
X157715000Y-63860000D03*
%TO.P,SW11,2*%
%TO.N,row_3*%
X170642000Y-61320000D03*
%TD*%
%TO.P,SW23,1*%
%TO.N,Net-(D12-Pad1)*%
X206915000Y-63860000D03*
%TO.P,SW23,2*%
%TO.N,row_3*%
X219842000Y-61320000D03*
%TD*%
%TO.P,SW19,1*%
%TO.N,Net-(D10-Pad1)*%
X190515000Y-63860000D03*
%TO.P,SW19,2*%
%TO.N,row_3*%
X203442000Y-61320000D03*
%TD*%
%TO.P,SW24,1*%
%TO.N,Net-(D12-Pad2)*%
X206915000Y-80260000D03*
%TO.P,SW24,2*%
%TO.N,row_4*%
X219842000Y-77720000D03*
%TD*%
%TO.P,SW12,1*%
%TO.N,Net-(D6-Pad2)*%
X157715000Y-80260000D03*
%TO.P,SW12,2*%
%TO.N,row_4*%
X170642000Y-77720000D03*
%TD*%
%TO.P,SW16,1*%
%TO.N,Net-(D8-Pad2)*%
X174115000Y-80260000D03*
%TO.P,SW16,2*%
%TO.N,row_4*%
X187042000Y-77720000D03*
%TD*%
%TO.P,SW14,1*%
%TO.N,Net-(D7-Pad2)*%
X174115000Y-47460000D03*
%TO.P,SW14,2*%
%TO.N,row_2*%
X187042000Y-44920000D03*
%TD*%
%TO.P,SW13,1*%
%TO.N,Net-(D7-Pad1)*%
X174115000Y-31060000D03*
%TO.P,SW13,2*%
%TO.N,row_1*%
X187042000Y-28520000D03*
%TD*%
%TO.P,SW18,2*%
%TO.N,row_2*%
X203442000Y-44920000D03*
%TO.P,SW18,1*%
%TO.N,Net-(D9-Pad2)*%
X190515000Y-47460000D03*
%TD*%
%TO.P,SW15,1*%
%TO.N,Net-(D8-Pad1)*%
X174115000Y-63860000D03*
%TO.P,SW15,2*%
%TO.N,row_3*%
X187042000Y-61320000D03*
%TD*%
%TO.P,SW9,1*%
%TO.N,Net-(D5-Pad1)*%
X157715000Y-31060000D03*
%TO.P,SW9,2*%
%TO.N,row_1*%
X170642000Y-28520000D03*
%TD*%
%TO.P,SW10,1*%
%TO.N,Net-(D5-Pad2)*%
X157715000Y-47460000D03*
%TO.P,SW10,2*%
%TO.N,row_2*%
X170642000Y-44920000D03*
%TD*%
%TO.P,SW21,1*%
%TO.N,Net-(D11-Pad1)*%
X206915000Y-31060000D03*
%TO.P,SW21,2*%
%TO.N,row_1*%
X219842000Y-28520000D03*
%TD*%
%TO.P,SW17,1*%
%TO.N,Net-(D9-Pad1)*%
X190515000Y-31060000D03*
%TO.P,SW17,2*%
%TO.N,row_1*%
X203442000Y-28520000D03*
%TD*%
%TO.P,SW22,1*%
%TO.N,Net-(D11-Pad2)*%
X206915000Y-47460000D03*
%TO.P,SW22,2*%
%TO.N,row_2*%
X219842000Y-44920000D03*
%TD*%
%TO.P,SW20,2*%
%TO.N,row_4*%
X203442000Y-77720000D03*
%TO.P,SW20,1*%
%TO.N,Net-(D10-Pad2)*%
X190515000Y-80260000D03*
%TD*%
D29*
%TO.P,D10,1*%
%TO.N,Net-(D10-Pad1)*%
X207262063Y-71359309D03*
%TO.P,D10,2*%
%TO.N,Net-(D10-Pad2)*%
X207262063Y-73259309D03*
%TO.P,D10,3*%
%TO.N,col_3*%
X205387063Y-72309309D03*
%TD*%
D22*
%TO.P,C6,1*%
%TO.N,+3.3V*%
X191088767Y-59586857D03*
%TO.P,C6,2*%
%TO.N,GND*%
X189363767Y-59586857D03*
%TD*%
D29*
%TO.P,D9,1*%
%TO.N,Net-(D9-Pad1)*%
X196465730Y-38786628D03*
%TO.P,D9,2*%
%TO.N,Net-(D9-Pad2)*%
X196465730Y-40686628D03*
%TO.P,D9,3*%
%TO.N,col_3*%
X194590730Y-39736628D03*
%TD*%
D27*
%TO.P,C8,1*%
%TO.N,+3.3V*%
X180863174Y-69351689D03*
%TO.P,C8,2*%
%TO.N,GND*%
X180863174Y-71076689D03*
%TD*%
D21*
%TO.P,C5,1*%
%TO.N,+3.3V*%
X197129029Y-74265311D03*
%TO.P,C5,2*%
%TO.N,GND*%
X197129029Y-72540311D03*
%TD*%
D30*
%TO.P,C4,1*%
%TO.N,+3.3V*%
X180854692Y-74896511D03*
%TO.P,C4,2*%
%TO.N,GND*%
X182579692Y-74896511D03*
%TD*%
D29*
%TO.P,D6,1*%
%TO.N,Net-(D6-Pad1)*%
X164300000Y-70320000D03*
%TO.P,D6,2*%
%TO.N,Net-(D6-Pad2)*%
X164300000Y-72220000D03*
%TO.P,D6,3*%
%TO.N,col_1*%
X162425000Y-71270000D03*
%TD*%
D31*
%TO.P,P1,A1,GND*%
%TO.N,GND*%
X192649042Y-85724719D03*
%TO.P,P1,A4,VBUS*%
%TO.N,+5V*%
X191849042Y-85724719D03*
D32*
%TO.P,P1,A5,CC*%
%TO.N,Net-(P1-CC)*%
X190649042Y-85724719D03*
%TO.P,P1,A6,D+*%
%TO.N,Net-(P1-D+)*%
X189649042Y-85724719D03*
%TO.P,P1,A7,D-*%
%TO.N,Net-(P1-D-)*%
X189149042Y-85724719D03*
%TO.P,P1,A8*%
%TO.N,N/C*%
X188149042Y-85724719D03*
D31*
%TO.P,P1,A9,VBUS*%
%TO.N,+5V*%
X186949042Y-85724719D03*
%TO.P,P1,A12,GND*%
%TO.N,GND*%
X186149042Y-85724719D03*
%TO.P,P1,B1,GND*%
X186149042Y-85724719D03*
%TO.P,P1,B4,VBUS*%
%TO.N,+5V*%
X186949042Y-85724719D03*
D32*
%TO.P,P1,B5,VCONN*%
%TO.N,Net-(P1-VCONN)*%
X187649042Y-85724719D03*
%TO.P,P1,B6*%
%TO.N,N/C*%
X188649042Y-85724719D03*
%TO.P,P1,B7*%
X190149042Y-85724719D03*
%TO.P,P1,B8*%
X191149042Y-85724719D03*
D31*
%TO.P,P1,B9,VBUS*%
%TO.N,+5V*%
X191849042Y-85724719D03*
%TO.P,P1,B12,GND*%
%TO.N,GND*%
X192649042Y-85724719D03*
D33*
%TO.P,P1,S1,SHIELD*%
%TO.N,unconnected-(P1-SHIELD-PadS1)*%
X193719042Y-90819719D03*
D34*
X193719042Y-86639719D03*
D33*
X185079042Y-90819719D03*
D34*
X185079042Y-86639719D03*
%TD*%
D19*
%TO.P,R5,1*%
%TO.N,+3.3V*%
X191110811Y-58065826D03*
%TO.P,R5,2*%
%TO.N,RESET*%
X191110811Y-56240826D03*
%TD*%
D35*
%TO.P,U1,1,VIN*%
%TO.N,+BATT*%
X201669871Y-86892103D03*
%TO.P,U1,2,GND*%
%TO.N,GND*%
X201669871Y-87842103D03*
%TO.P,U1,3,INH*%
%TO.N,+BATT*%
X201669871Y-88792103D03*
%TO.P,U1,4,BYP*%
%TO.N,Net-(U1-BYP)*%
X199394871Y-88792103D03*
%TO.P,U1,5,VOUT*%
%TO.N,Net-(U1-VOUT)*%
X199394871Y-86892103D03*
%TD*%
D30*
%TO.P,C2,1*%
%TO.N,Net-(U1-BYP)*%
X198802746Y-90324763D03*
%TO.P,C2,2*%
%TO.N,GND*%
X200527746Y-90324763D03*
%TD*%
D29*
%TO.P,D11,1*%
%TO.N,Net-(D11-Pad1)*%
X211989752Y-38928550D03*
%TO.P,D11,2*%
%TO.N,Net-(D11-Pad2)*%
X211989752Y-40828550D03*
%TO.P,D11,3*%
%TO.N,col_4*%
X210114752Y-39878550D03*
%TD*%
D22*
%TO.P,C7,1*%
%TO.N,+3.3V*%
X185951606Y-74878054D03*
%TO.P,C7,2*%
%TO.N,GND*%
X184226606Y-74878054D03*
%TD*%
D27*
%TO.P,C3,1*%
%TO.N,Net-(U1-VOUT)*%
X197422612Y-86534557D03*
%TO.P,C3,2*%
%TO.N,GND*%
X197422612Y-88259557D03*
%TD*%
D29*
%TO.P,D12,1*%
%TO.N,Net-(D12-Pad1)*%
X218457027Y-70788448D03*
%TO.P,D12,2*%
%TO.N,Net-(D12-Pad2)*%
X218457027Y-72688448D03*
%TO.P,D12,3*%
%TO.N,col_4*%
X216582027Y-71738448D03*
%TD*%
%TO.P,D8,1*%
%TO.N,Net-(D8-Pad1)*%
X171900221Y-71866727D03*
%TO.P,D8,2*%
%TO.N,Net-(D8-Pad2)*%
X171900221Y-73766727D03*
%TO.P,D8,3*%
%TO.N,col_2*%
X170025221Y-72816727D03*
%TD*%
%TO.P,D5,1*%
%TO.N,Net-(D5-Pad1)*%
X162760652Y-39199511D03*
%TO.P,D5,2*%
%TO.N,Net-(D5-Pad2)*%
X162760652Y-41099511D03*
%TO.P,D5,3*%
%TO.N,col_1*%
X160885652Y-40149511D03*
%TD*%
D27*
%TO.P,C1,1*%
%TO.N,+BATT*%
X203724053Y-86861272D03*
%TO.P,C1,2*%
%TO.N,GND*%
X203724053Y-88586272D03*
%TD*%
D10*
%TO.P,R6,1*%
%TO.N,+3.3V*%
X179284861Y-69414259D03*
%TO.P,R6,2*%
%TO.N,BOOT0*%
X177459861Y-69414259D03*
%TD*%
D19*
%TO.P,R3,1*%
%TO.N,GND*%
X189413428Y-58105267D03*
%TO.P,R3,2*%
%TO.N,RESET*%
X189413428Y-56280267D03*
%TD*%
D36*
%TO.P,U2,1,VBAT*%
%TO.N,unconnected-(U2-VBAT-Pad1)*%
X187815428Y-66621310D03*
%TO.P,U2,2,PC13*%
%TO.N,unconnected-(U2-PC13-Pad2)*%
X188315428Y-66621310D03*
%TO.P,U2,3,PC14*%
%TO.N,unconnected-(U2-PC14-Pad3)*%
X188815428Y-66621310D03*
%TO.P,U2,4,PC15*%
%TO.N,unconnected-(U2-PC15-Pad4)*%
X189315428Y-66621310D03*
%TO.P,U2,5,PD0*%
%TO.N,osc1*%
X189815428Y-66621310D03*
%TO.P,U2,6,PD1*%
%TO.N,osc2*%
X190315428Y-66621310D03*
%TO.P,U2,7,NRST*%
%TO.N,RESET*%
X190815428Y-66621310D03*
%TO.P,U2,8,VSSA*%
%TO.N,GND*%
X191315428Y-66621310D03*
%TO.P,U2,9,VDDA*%
%TO.N,+3.3V*%
X191815428Y-66621310D03*
%TO.P,U2,10,PA0*%
%TO.N,unconnected-(U2-PA0-Pad10)*%
X192315428Y-66621310D03*
%TO.P,U2,11,PA1*%
%TO.N,unconnected-(U2-PA1-Pad11)*%
X192815428Y-66621310D03*
%TO.P,U2,12,PA2*%
%TO.N,unconnected-(U2-PA2-Pad12)*%
X193315428Y-66621310D03*
D37*
%TO.P,U2,13,PA3*%
%TO.N,col_1*%
X194727928Y-68033810D03*
%TO.P,U2,14,PA4*%
%TO.N,col_2*%
X194727928Y-68533810D03*
%TO.P,U2,15,PA5*%
%TO.N,row_1*%
X194727928Y-69033810D03*
%TO.P,U2,16,PA6*%
%TO.N,row_2*%
X194727928Y-69533810D03*
%TO.P,U2,17,PA7*%
%TO.N,row_3*%
X194727928Y-70033810D03*
%TO.P,U2,18,PB0*%
%TO.N,col_4*%
X194727928Y-70533810D03*
%TO.P,U2,19,PB1*%
%TO.N,row_4*%
X194727928Y-71033810D03*
%TO.P,U2,20,PB2*%
%TO.N,col_3*%
X194727928Y-71533810D03*
%TO.P,U2,21,PB10*%
%TO.N,unconnected-(U2-PB10-Pad21)*%
X194727928Y-72033810D03*
%TO.P,U2,22,PB11*%
%TO.N,unconnected-(U2-PB11-Pad22)*%
X194727928Y-72533810D03*
%TO.P,U2,23,VSS*%
%TO.N,GND*%
X194727928Y-73033810D03*
%TO.P,U2,24,VDD*%
%TO.N,+3.3V*%
X194727928Y-73533810D03*
D36*
%TO.P,U2,25,PB12*%
%TO.N,unconnected-(U2-PB12-Pad25)*%
X193315428Y-74946310D03*
%TO.P,U2,26,PB13*%
%TO.N,unconnected-(U2-PB13-Pad26)*%
X192815428Y-74946310D03*
%TO.P,U2,27,PB14*%
%TO.N,unconnected-(U2-PB14-Pad27)*%
X192315428Y-74946310D03*
%TO.P,U2,28,PB15*%
%TO.N,unconnected-(U2-PB15-Pad28)*%
X191815428Y-74946310D03*
%TO.P,U2,29,PA8*%
%TO.N,unconnected-(U2-PA8-Pad29)*%
X191315428Y-74946310D03*
%TO.P,U2,30,PA9*%
%TO.N,unconnected-(U2-PA9-Pad30)*%
X190815428Y-74946310D03*
%TO.P,U2,31,PA10*%
%TO.N,unconnected-(U2-PA10-Pad31)*%
X190315428Y-74946310D03*
%TO.P,U2,32,PA11*%
%TO.N,USB_D-*%
X189815428Y-74946310D03*
%TO.P,U2,33,PA12*%
%TO.N,USB_D+*%
X189315428Y-74946310D03*
%TO.P,U2,34,PA13*%
%TO.N,SWDIO*%
X188815428Y-74946310D03*
%TO.P,U2,35,VSS*%
%TO.N,GND*%
X188315428Y-74946310D03*
%TO.P,U2,36,VDD*%
%TO.N,+3.3V*%
X187815428Y-74946310D03*
D37*
%TO.P,U2,37,PA14*%
%TO.N,SWCLK*%
X186402928Y-73533810D03*
%TO.P,U2,38,PA15*%
%TO.N,unconnected-(U2-PA15-Pad38)*%
X186402928Y-73033810D03*
%TO.P,U2,39,PB3*%
%TO.N,unconnected-(U2-PB3-Pad39)*%
X186402928Y-72533810D03*
%TO.P,U2,40,PB4*%
%TO.N,unconnected-(U2-PB4-Pad40)*%
X186402928Y-72033810D03*
%TO.P,U2,41,PB5*%
%TO.N,Net-(U2-PB5)*%
X186402928Y-71533810D03*
%TO.P,U2,42,PB6*%
%TO.N,unconnected-(U2-PB6-Pad42)*%
X186402928Y-71033810D03*
%TO.P,U2,43,PB7*%
%TO.N,unconnected-(U2-PB7-Pad43)*%
X186402928Y-70533810D03*
%TO.P,U2,44,BOOT0*%
%TO.N,BOOT0*%
X186402928Y-70033810D03*
%TO.P,U2,45,PB8*%
%TO.N,unconnected-(U2-PB8-Pad45)*%
X186402928Y-69533810D03*
%TO.P,U2,46,PB9*%
%TO.N,unconnected-(U2-PB9-Pad46)*%
X186402928Y-69033810D03*
%TO.P,U2,47,VSS*%
%TO.N,GND*%
X186402928Y-68533810D03*
%TO.P,U2,48,VDD*%
%TO.N,+3.3V*%
X186402928Y-68033810D03*
%TD*%
D29*
%TO.P,D7,1*%
%TO.N,Net-(D7-Pad1)*%
X179555383Y-39446908D03*
%TO.P,D7,2*%
%TO.N,Net-(D7-Pad2)*%
X179555383Y-41346908D03*
%TO.P,D7,3*%
%TO.N,col_2*%
X177680383Y-40396908D03*
%TD*%
D10*
%TO.P,R4,1*%
%TO.N,GND*%
X179259348Y-71149198D03*
%TO.P,R4,2*%
%TO.N,BOOT0*%
X177434348Y-71149198D03*
%TD*%
D38*
%TO.N,Net-(U2-PB5)*%
X169380000Y-85560000D03*
X177459937Y-74807424D03*
X174896139Y-73211096D03*
%TO.N,GND*%
X222054275Y-86417966D03*
X213792052Y-88593898D03*
%TO.N,+BATT*%
X217052831Y-85671841D03*
X203212428Y-83518890D03*
%TO.N,Net-(U5-Gate_2)*%
X215271826Y-87784859D03*
X220704377Y-85559999D03*
%TO.N,Net-(U5-Gate_1)*%
X219911406Y-88126967D03*
X222601558Y-91205734D03*
%TO.N,+3.3V*%
X201025017Y-81855367D03*
X191504377Y-82921185D03*
%TO.N,+5V*%
X209940792Y-91168123D03*
X205032095Y-85630769D03*
%TO.N,row_4*%
X220180000Y-75400000D03*
%TO.N,row_1*%
X187160000Y-32220000D03*
%TO.N,row_2*%
X202400000Y-50000000D03*
%TO.N,row_1*%
X200630075Y-66956167D03*
%TO.N,row_2*%
X201475909Y-68558876D03*
%TO.N,col_1*%
X173999678Y-53012171D03*
X196277097Y-62462376D03*
%TO.N,col_2*%
X193137478Y-68270209D03*
%TO.N,row_3*%
X202611220Y-69496167D03*
X203693726Y-64809709D03*
%TO.N,row_4*%
X202522234Y-71446667D03*
%TO.N,col_4*%
X203806966Y-70078078D03*
X203670813Y-66350741D03*
%TO.N,row_4*%
X203327571Y-75400000D03*
X195844311Y-76444894D03*
%TO.N,SWDIO*%
X185158612Y-81060856D03*
%TO.N,SWCLK*%
X176210658Y-77463267D03*
%TO.N,SWDIO*%
X190034234Y-73199539D03*
%TO.N,col_2*%
X171920000Y-39840000D03*
X170063009Y-65622485D03*
%TO.N,col_3*%
X202400000Y-39840000D03*
X203584143Y-72184071D03*
%TO.N,+3.3V*%
X181713902Y-73826186D03*
X189700000Y-70320000D03*
X192240000Y-72860000D03*
%TO.N,GND*%
X184740951Y-84538823D03*
%TO.N,USB_D-*%
X190371941Y-76846447D03*
%TO.N,USB_D+*%
X189444800Y-77711152D03*
X188077003Y-81049174D03*
%TO.N,USB_D-*%
X186448532Y-81049174D03*
%TO.N,Net-(P1-VCONN)*%
X188089770Y-87770616D03*
%TO.N,Net-(P1-CC)*%
X189776212Y-88165876D03*
X182142000Y-89828245D03*
%TO.N,Net-(P1-VCONN)*%
X182161062Y-88176246D03*
%TO.N,+5V*%
X190882940Y-84242466D03*
X186955851Y-84387408D03*
%TO.N,GND*%
X189227273Y-72051790D03*
X197129029Y-72540311D03*
X184226606Y-74878054D03*
X189416513Y-58104720D03*
X179268272Y-71118529D03*
X191887247Y-69452806D03*
%TO.N,+3.3V*%
X192736578Y-70689730D03*
X191117433Y-58078143D03*
%TO.N,RESET*%
X189412219Y-56291155D03*
X190821563Y-69713306D03*
%TD*%
D39*
%TO.N,GND*%
X161413812Y-90383871D02*
X167613812Y-90383871D01*
%TO.N,Net-(U2-PB5)*%
X161413812Y-86683871D02*
X167613812Y-86683871D01*
D40*
%TO.N,+5V*%
X190882940Y-84242466D02*
X190919866Y-84205540D01*
X191647424Y-84205540D02*
X191849042Y-84407158D01*
X190919866Y-84205540D02*
X191647424Y-84205540D01*
X191849042Y-84407158D02*
X191849042Y-85724719D01*
%TO.N,GND*%
X192649042Y-85724719D02*
X192649042Y-84548636D01*
X192649042Y-84548636D02*
X192722444Y-84475234D01*
X196691430Y-88259557D02*
X197422612Y-88259557D01*
X192722444Y-84475234D02*
X194542051Y-84475234D01*
X194542051Y-84475234D02*
X195157918Y-85091101D01*
X195157918Y-86726045D02*
X196691430Y-88259557D01*
X195157918Y-85091101D02*
X195157918Y-86726045D01*
D39*
%TO.N,Net-(U2-PB5)*%
X167613812Y-86683871D02*
X168256129Y-86683871D01*
X168256129Y-86683871D02*
X169380000Y-85560000D01*
X174896139Y-73211096D02*
X175620409Y-72486826D01*
X175620409Y-72486826D02*
X184043603Y-72486826D01*
X184043603Y-72486826D02*
X184996619Y-71533810D01*
X184996619Y-71533810D02*
X186402928Y-71533810D01*
D40*
%TO.N,+3.3V*%
X180797793Y-73951591D02*
X180797793Y-74823608D01*
X180789791Y-74831610D02*
X179261852Y-74831610D01*
X180797793Y-74823608D02*
X180789791Y-74831610D01*
D39*
%TO.N,SWCLK*%
X176210658Y-77463267D02*
X176210658Y-73916173D01*
X176210658Y-73916173D02*
X177096188Y-73030643D01*
X177096188Y-73030643D02*
X184500215Y-73030643D01*
X184500215Y-73030643D02*
X185003382Y-73533810D01*
X185003382Y-73533810D02*
X186402928Y-73533810D01*
%TO.N,GND*%
X167613812Y-90383871D02*
X168885008Y-91655067D01*
X168885008Y-91655067D02*
X176941173Y-91655067D01*
X176941173Y-91655067D02*
X177155948Y-91440292D01*
X177155948Y-91440292D02*
X177155948Y-90157813D01*
D40*
%TO.N,+3.3V*%
X181713902Y-73826186D02*
X180923198Y-73826186D01*
X180923198Y-73826186D02*
X180797793Y-73951591D01*
X180797793Y-73951591D02*
X180797793Y-74749658D01*
%TO.N,-BATT*%
X219853622Y-81312027D02*
X218626643Y-82539006D01*
X218626643Y-82539006D02*
X218626643Y-85761811D01*
%TO.N,GND*%
X222054275Y-86417966D02*
X222054275Y-85674599D01*
X222054275Y-85674599D02*
X221288503Y-84908827D01*
X221288503Y-84908827D02*
X221288503Y-83247929D01*
D39*
X213773559Y-88575405D02*
X213773559Y-88567528D01*
X213792052Y-88593898D02*
X213773559Y-88575405D01*
X213773559Y-88612391D02*
X213792052Y-88593898D01*
D40*
%TO.N,+BATT*%
X203212428Y-83518890D02*
X203189911Y-86327130D01*
%TO.N,-BATT*%
X218626643Y-85761811D02*
X219101643Y-85761811D01*
X219101643Y-85761811D02*
X221269201Y-87929369D01*
X221269201Y-87929369D02*
X221269201Y-90799854D01*
X221269201Y-90799854D02*
X220902068Y-91166987D01*
X220902068Y-91166987D02*
X218383220Y-91166987D01*
D39*
%TO.N,Net-(U5-Gate_2)*%
X220409227Y-85264849D02*
X220409227Y-83974156D01*
X220704377Y-85559999D02*
X220409227Y-85264849D01*
X220409227Y-83974156D02*
X220310687Y-83875616D01*
D40*
%TO.N,Net-(U6-VCC)*%
X218383220Y-90216987D02*
X217188657Y-90216987D01*
X217188657Y-90216987D02*
X217024745Y-90053075D01*
X217024745Y-90053075D02*
X217024745Y-87501695D01*
X217024745Y-87501695D02*
X218611759Y-87501695D01*
X218611759Y-87501695D02*
X218626643Y-87486811D01*
D39*
%TO.N,Net-(U5-Gate_2)*%
X215271826Y-87784859D02*
X215271826Y-88855593D01*
X215271826Y-88855593D02*
X215683220Y-89266987D01*
%TO.N,GND*%
X211771103Y-91111939D02*
X211931996Y-91111939D01*
X211931996Y-91111939D02*
X213773559Y-89270376D01*
X213773559Y-89270376D02*
X213773559Y-88612391D01*
%TO.N,Net-(U6-CS)*%
X215683220Y-90216987D02*
X214491055Y-90216987D01*
X214491055Y-90216987D02*
X213596103Y-91111939D01*
%TO.N,Net-(U5-Gate_1)*%
X222601558Y-91205734D02*
X221931260Y-91876032D01*
X221931260Y-91876032D02*
X216392265Y-91876032D01*
X216392265Y-91876032D02*
X215683220Y-91166987D01*
X219911406Y-88126967D02*
X220310687Y-88526248D01*
X220310687Y-88526248D02*
X220310687Y-89600616D01*
%TO.N,row_4*%
X195844311Y-76444894D02*
X195080629Y-77208576D01*
X191717300Y-77208576D02*
X190464724Y-78461152D01*
X190464724Y-78461152D02*
X187783152Y-78461152D01*
X195080629Y-77208576D02*
X191717300Y-77208576D01*
X187783152Y-78461152D02*
X187042000Y-77720000D01*
D40*
%TO.N,Net-(U1-VOUT)*%
X201025786Y-83683412D02*
X201025786Y-84546096D01*
X201025786Y-84546096D02*
X199037325Y-86534557D01*
%TO.N,GND*%
X183527007Y-87777468D02*
X183527007Y-85560000D01*
X184969442Y-89219903D02*
X183527007Y-87777468D01*
X196462266Y-89219903D02*
X184969442Y-89219903D01*
X197422612Y-88259557D02*
X196462266Y-89219903D01*
%TO.N,+BATT*%
X203189911Y-83556128D02*
X203212428Y-83518890D01*
X203189911Y-86327130D02*
X203724053Y-86861272D01*
%TO.N,+5V*%
X205014911Y-83556128D02*
X205014911Y-85613585D01*
X205014911Y-85613585D02*
X205032095Y-85630769D01*
%TO.N,GND*%
X211607217Y-88170769D02*
X213376800Y-88170769D01*
X213376800Y-88170769D02*
X213773559Y-88567528D01*
%TO.N,Net-(U4-PROG)*%
X211607217Y-86900769D02*
X213615318Y-86900769D01*
X213615318Y-86900769D02*
X213773559Y-86742528D01*
%TO.N,GND*%
X209132217Y-87535769D02*
X209132217Y-90257783D01*
X209132217Y-90257783D02*
X207869326Y-91520674D01*
X207869326Y-91520674D02*
X201723657Y-91520674D01*
X201723657Y-91520674D02*
X200527746Y-90324763D01*
%TO.N,+5V*%
X211607217Y-89440769D02*
X211607217Y-89501698D01*
X211607217Y-89501698D02*
X209940792Y-91168123D01*
X205032095Y-85630769D02*
X206657217Y-85630769D01*
%TO.N,GND*%
X209132217Y-87535769D02*
X211037217Y-85630769D01*
X211037217Y-85630769D02*
X211607217Y-85630769D01*
X209132217Y-87535769D02*
X209767217Y-88170769D01*
X209767217Y-88170769D02*
X211607217Y-88170769D01*
%TO.N,+BATT*%
X205150805Y-89635949D02*
X205150805Y-88100000D01*
X205150805Y-88100000D02*
X205150805Y-86966921D01*
X206657217Y-89440769D02*
X205682217Y-89440769D01*
X205682217Y-89440769D02*
X205150805Y-88909357D01*
X205150805Y-88909357D02*
X205150805Y-88100000D01*
D39*
%TO.N,row_4*%
X219842000Y-77720000D02*
X219842000Y-75738000D01*
X219842000Y-75738000D02*
X220180000Y-75400000D01*
%TO.N,Net-(D10-Pad1)*%
X207262063Y-71359309D02*
X206884744Y-71359309D01*
X206884744Y-71359309D02*
X196849930Y-61324495D01*
X196849930Y-61324495D02*
X191665351Y-61324495D01*
X191665351Y-61324495D02*
X190515000Y-62474846D01*
X190515000Y-62474846D02*
X190515000Y-63860000D01*
%TO.N,row_1*%
X187042000Y-28520000D02*
X187042000Y-32102000D01*
X187042000Y-32102000D02*
X187160000Y-32220000D01*
%TO.N,row_2*%
X200902000Y-47460000D02*
X202400000Y-48958000D01*
X202400000Y-48958000D02*
X202400000Y-50000000D01*
%TO.N,row_1*%
X200630075Y-66956167D02*
X200630075Y-67506500D01*
X199102765Y-69033810D02*
X194727928Y-69033810D01*
X200630075Y-67506500D02*
X199102765Y-69033810D01*
%TO.N,row_2*%
X201341041Y-68558876D02*
X200366107Y-69533810D01*
X201475909Y-68558876D02*
X201341041Y-68558876D01*
X200366107Y-69533810D02*
X194727928Y-69533810D01*
%TO.N,row_3*%
X203693726Y-64809709D02*
X203442000Y-64557983D01*
X203442000Y-64557983D02*
X203442000Y-61320000D01*
X202611220Y-69496167D02*
X202073577Y-70033810D01*
X202073577Y-70033810D02*
X194727928Y-70033810D01*
%TO.N,col_1*%
X168215504Y-52540000D02*
X168215504Y-56439286D01*
X168215504Y-49373058D02*
X168215504Y-52540000D01*
X168215504Y-52540000D02*
X173527507Y-52540000D01*
X173527507Y-52540000D02*
X173999678Y-53012171D01*
X196277097Y-62462376D02*
X196369507Y-62554786D01*
X196369507Y-62554786D02*
X196369507Y-64108871D01*
X196369507Y-64108871D02*
X194727928Y-65750450D01*
X194727928Y-65750450D02*
X194727928Y-68033810D01*
%TO.N,col_2*%
X193137478Y-68263843D02*
X193143844Y-68270209D01*
X193137478Y-68270209D02*
X193137478Y-68263843D01*
X193143844Y-68270209D02*
X193137478Y-68270209D01*
X193407445Y-68533810D02*
X193143844Y-68270209D01*
X194727928Y-68533810D02*
X193407445Y-68533810D01*
%TO.N,+3.3V*%
X192736578Y-70689730D02*
X192731900Y-70694408D01*
X192731900Y-70694408D02*
X192731900Y-72368100D01*
X192731900Y-72368100D02*
X192177268Y-72922732D01*
X192736578Y-70689730D02*
X192637247Y-70590399D01*
X192637247Y-70590399D02*
X192637247Y-69142145D01*
X192637247Y-69142145D02*
X191815428Y-68320326D01*
X191815428Y-68320326D02*
X191815428Y-66621310D01*
%TO.N,col_4*%
X203806966Y-70078078D02*
X203351234Y-70533810D01*
X203351234Y-70533810D02*
X194727928Y-70533810D01*
%TO.N,row_4*%
X202522234Y-71446667D02*
X202151316Y-71817585D01*
X198958467Y-71033810D02*
X194727928Y-71033810D01*
X202151316Y-71817585D02*
X199742242Y-71817585D01*
X199742242Y-71817585D02*
X198958467Y-71033810D01*
%TO.N,col_3*%
X203584143Y-72184071D02*
X203450629Y-72317585D01*
X203450629Y-72317585D02*
X199535136Y-72317585D01*
X199535136Y-72317585D02*
X198751361Y-71533810D01*
X198751361Y-71533810D02*
X194727928Y-71533810D01*
X203709381Y-72309309D02*
X205387063Y-72309309D01*
X203584143Y-72184071D02*
X203709381Y-72309309D01*
%TO.N,col_4*%
X203670813Y-66350741D02*
X204902652Y-66350741D01*
X204902652Y-66350741D02*
X210290359Y-71738448D01*
X210290359Y-71738448D02*
X216582027Y-71738448D01*
%TO.N,row_4*%
X203442000Y-77720000D02*
X203442000Y-75514429D01*
X203442000Y-75514429D02*
X203327571Y-75400000D01*
%TO.N,Net-(D10-Pad2)*%
X207262063Y-73259309D02*
X201138510Y-73259309D01*
X201138510Y-73259309D02*
X196515977Y-77881842D01*
X196515977Y-77881842D02*
X192190251Y-77881842D01*
X192190251Y-77881842D02*
X190515000Y-79557093D01*
X190515000Y-79557093D02*
X190515000Y-80260000D01*
%TO.N,USB_D+*%
X189444800Y-77711152D02*
X189315428Y-77581780D01*
X189315428Y-77581780D02*
X189315428Y-74946310D01*
%TO.N,row_4*%
X187042000Y-77720000D02*
X184730844Y-80031156D01*
X180464089Y-80031156D02*
X177475245Y-83020000D01*
X177475245Y-83020000D02*
X172801989Y-83020000D01*
X172801989Y-83020000D02*
X170642000Y-80860011D01*
X184730844Y-80031156D02*
X180464089Y-80031156D01*
X170642000Y-80860011D02*
X170642000Y-77720000D01*
%TO.N,SWDIO*%
X172075948Y-88529939D02*
X172075948Y-90157813D01*
X185158612Y-81060856D02*
X185158612Y-82646403D01*
X185158612Y-82646403D02*
X182245015Y-85560000D01*
X182245015Y-85560000D02*
X175045887Y-85560000D01*
X175045887Y-85560000D02*
X172075948Y-88529939D01*
%TO.N,row_3*%
X203442000Y-58662000D02*
X204298181Y-57805819D01*
X204298181Y-57805819D02*
X218457054Y-57805819D01*
X218457054Y-57805819D02*
X219842000Y-59190765D01*
X219842000Y-59190765D02*
X219842000Y-61320000D01*
X187042000Y-61320000D02*
X187042000Y-54511675D01*
X187042000Y-54511675D02*
X187513866Y-54039809D01*
X187513866Y-54039809D02*
X198819809Y-54039809D01*
X198819809Y-54039809D02*
X203442000Y-58662000D01*
X203442000Y-58662000D02*
X203442000Y-61320000D01*
X170642000Y-61320000D02*
X174342000Y-57620000D01*
X174342000Y-57620000D02*
X187042000Y-57620000D01*
X187042000Y-57620000D02*
X187042000Y-61320000D01*
D40*
%TO.N,GND*%
X183527007Y-85560000D02*
X183719774Y-85560000D01*
X183719774Y-85560000D02*
X184740951Y-84538823D01*
D39*
X180334577Y-88153051D02*
X180334577Y-87429944D01*
X180334577Y-87429944D02*
X181120960Y-86643561D01*
X181120960Y-86643561D02*
X182443446Y-86643561D01*
D40*
X183527007Y-85560000D02*
X182443446Y-86643561D01*
X182443446Y-86643561D02*
X178886343Y-86643561D01*
X178886343Y-86643561D02*
X177155948Y-88373956D01*
X177155948Y-88373956D02*
X177155948Y-90157813D01*
D39*
%TO.N,SWDIO*%
X190034234Y-73199539D02*
X189413513Y-73199539D01*
X189413513Y-73199539D02*
X188815428Y-73797624D01*
X188815428Y-73797624D02*
X188815428Y-74946310D01*
%TO.N,GND*%
X189227273Y-72051790D02*
X188315428Y-72963636D01*
X188315428Y-72963636D02*
X188315428Y-74946310D01*
%TO.N,col_4*%
X216582027Y-71738448D02*
X218951635Y-71738448D01*
X219812954Y-39878550D02*
X210114752Y-39878550D01*
X218951635Y-71738448D02*
X222720000Y-67970083D01*
X222720000Y-67970083D02*
X222720000Y-42785596D01*
X222720000Y-42785596D02*
X219812954Y-39878550D01*
%TO.N,col_1*%
X160885652Y-40149511D02*
X163797032Y-40149511D01*
X168069416Y-71195046D02*
X167994462Y-71270000D01*
X163797032Y-40149511D02*
X164300000Y-40652479D01*
X164300000Y-40652479D02*
X164300000Y-45457554D01*
X164300000Y-45457554D02*
X168215504Y-49373058D01*
X168215504Y-56439286D02*
X164681689Y-59973101D01*
X164681689Y-59973101D02*
X164681689Y-62015401D01*
X164681689Y-62015401D02*
X168069416Y-65403128D01*
X168069416Y-65403128D02*
X168069416Y-71195046D01*
X167994462Y-71270000D02*
X162425000Y-71270000D01*
%TO.N,col_2*%
X177680383Y-40396908D02*
X172476908Y-40396908D01*
X172476908Y-40396908D02*
X171920000Y-39840000D01*
X170063009Y-65622485D02*
X170025221Y-65584697D01*
X170025221Y-65660273D02*
X170063009Y-65622485D01*
%TO.N,col_3*%
X194590730Y-39736628D02*
X202296628Y-39736628D01*
X202296628Y-39736628D02*
X202400000Y-39840000D01*
%TO.N,col_2*%
X170025221Y-72816727D02*
X170025221Y-65660273D01*
%TO.N,row_2*%
X203442000Y-44920000D02*
X203442000Y-46860530D01*
X210987361Y-49385000D02*
X213527361Y-46845000D01*
X203442000Y-46860530D02*
X205966470Y-49385000D01*
X205966470Y-49385000D02*
X210987361Y-49385000D01*
X213527361Y-46845000D02*
X217917000Y-46845000D01*
X217917000Y-46845000D02*
X219842000Y-44920000D01*
X187042000Y-44920000D02*
X187042000Y-46860530D01*
X194205887Y-50000000D02*
X196745887Y-47460000D01*
X187042000Y-46860530D02*
X190181470Y-50000000D01*
X190181470Y-50000000D02*
X194205887Y-50000000D01*
X196745887Y-47460000D02*
X200902000Y-47460000D01*
X200902000Y-47460000D02*
X203442000Y-44920000D01*
X170642000Y-44920000D02*
X170642000Y-46860530D01*
X170642000Y-46860530D02*
X173166470Y-49385000D01*
X173166470Y-49385000D02*
X178187361Y-49385000D01*
X178187361Y-49385000D02*
X180727361Y-46845000D01*
X185117000Y-46845000D02*
X187042000Y-44920000D01*
X180727361Y-46845000D02*
X185117000Y-46845000D01*
%TO.N,row_1*%
X203442000Y-28520000D02*
X205367000Y-26595000D01*
X205367000Y-26595000D02*
X217917000Y-26595000D01*
X217917000Y-26595000D02*
X219842000Y-28520000D01*
X187042000Y-28520000D02*
X188967000Y-26595000D01*
X188967000Y-26595000D02*
X201517000Y-26595000D01*
X201517000Y-26595000D02*
X203442000Y-28520000D01*
X170642000Y-28520000D02*
X172567000Y-26595000D01*
X172567000Y-26595000D02*
X185117000Y-26595000D01*
X185117000Y-26595000D02*
X187042000Y-28520000D01*
%TO.N,Net-(D12-Pad1)*%
X218457027Y-70788448D02*
X211548594Y-70788448D01*
X211548594Y-70788448D02*
X206915000Y-66154854D01*
X206915000Y-66154854D02*
X206915000Y-63860000D01*
%TO.N,Net-(D12-Pad2)*%
X218457027Y-72688448D02*
X212731552Y-72688448D01*
X212731552Y-72688448D02*
X206915000Y-78505000D01*
X206915000Y-78505000D02*
X206915000Y-80260000D01*
%TO.N,Net-(D8-Pad1)*%
X171900221Y-71866727D02*
X174115000Y-69651948D01*
X174115000Y-69651948D02*
X174115000Y-63860000D01*
%TO.N,Net-(D8-Pad2)*%
X174115000Y-80260000D02*
X174115000Y-75981506D01*
X174115000Y-75981506D02*
X171900221Y-73766727D01*
%TO.N,Net-(D6-Pad2)*%
X164300000Y-72220000D02*
X157715000Y-78805000D01*
X157715000Y-78805000D02*
X157715000Y-80260000D01*
%TO.N,Net-(D6-Pad1)*%
X164300000Y-70320000D02*
X157840000Y-63860000D01*
X157840000Y-63860000D02*
X157715000Y-63860000D01*
%TO.N,Net-(D11-Pad2)*%
X211989752Y-40828550D02*
X206915000Y-45903302D01*
X206915000Y-45903302D02*
X206915000Y-47460000D01*
%TO.N,Net-(D11-Pad1)*%
X211989752Y-38928550D02*
X206915000Y-33853798D01*
X206915000Y-33853798D02*
X206915000Y-31060000D01*
%TO.N,Net-(D9-Pad2)*%
X196465730Y-40686628D02*
X190515000Y-46637358D01*
X190515000Y-46637358D02*
X190515000Y-47460000D01*
%TO.N,Net-(D9-Pad1)*%
X196465730Y-38786628D02*
X190515000Y-32835898D01*
X190515000Y-32835898D02*
X190515000Y-31060000D01*
%TO.N,Net-(D7-Pad1)*%
X179555383Y-39446908D02*
X174115000Y-34006525D01*
X174115000Y-34006525D02*
X174115000Y-31060000D01*
%TO.N,Net-(D7-Pad2)*%
X179555383Y-41346908D02*
X174115000Y-46787291D01*
X174115000Y-46787291D02*
X174115000Y-47460000D01*
%TO.N,Net-(D5-Pad2)*%
X162760652Y-41099511D02*
X157715000Y-46145163D01*
X157715000Y-46145163D02*
X157715000Y-47460000D01*
%TO.N,Net-(D5-Pad1)*%
X162760652Y-39199511D02*
X157715000Y-34153859D01*
X157715000Y-34153859D02*
X157715000Y-31060000D01*
D40*
%TO.N,+3.3V*%
X189700000Y-70445464D02*
X192177268Y-72922732D01*
X189700000Y-70320000D02*
X189700000Y-70445464D01*
X189574536Y-70320000D02*
X189700000Y-70320000D01*
%TO.N,GND*%
X182522793Y-74749658D02*
X184098210Y-74749658D01*
X184098210Y-74749658D02*
X184226606Y-74878054D01*
X184811191Y-84609063D02*
X185917540Y-84609063D01*
X184740951Y-84538823D02*
X184811191Y-84609063D01*
%TO.N,+3.3V*%
X191500425Y-82925137D02*
X191500073Y-82925137D01*
X191504377Y-82921185D02*
X191500425Y-82925137D01*
X191508329Y-82925137D02*
X191504377Y-82921185D01*
D39*
%TO.N,USB_D-*%
X190371941Y-76341365D02*
X189815428Y-75784852D01*
X190371941Y-76846447D02*
X190371941Y-76341365D01*
X189815428Y-75784852D02*
X189815428Y-74946310D01*
%TO.N,GND*%
X180329112Y-89810463D02*
X180329112Y-88158516D01*
X180329112Y-88158516D02*
X180334577Y-88153051D01*
%TO.N,Net-(P1-VCONN)*%
X188089770Y-87770616D02*
X188089770Y-87349006D01*
X188089770Y-87349006D02*
X187649042Y-86908278D01*
X187649042Y-86908278D02*
X187649042Y-85724719D01*
%TO.N,Net-(P1-CC)*%
X189776212Y-88165876D02*
X190649042Y-87293046D01*
X190649042Y-87293046D02*
X190649042Y-85724719D01*
D40*
%TO.N,GND*%
X185917540Y-84609063D02*
X186149042Y-84840565D01*
X186149042Y-84840565D02*
X186149042Y-85724719D01*
%TO.N,+BATT*%
X201669871Y-88792103D02*
X203243828Y-90366060D01*
X205150805Y-86966921D02*
X205045156Y-86861272D01*
X203243828Y-90366060D02*
X204420694Y-90366060D01*
X204420694Y-90366060D02*
X205150805Y-89635949D01*
X205045156Y-86861272D02*
X203724053Y-86861272D01*
X203675168Y-86856452D02*
X203693222Y-86892103D01*
%TO.N,+5V*%
X186955851Y-84387408D02*
X186955851Y-84643806D01*
X186955851Y-84643806D02*
X186949042Y-84650615D01*
X186949042Y-84650615D02*
X186949042Y-85724719D01*
%TO.N,Net-(U1-VOUT)*%
X197422612Y-86534557D02*
X199037325Y-86534557D01*
X199037325Y-86534557D02*
X199394871Y-86892103D01*
%TO.N,GND*%
X197422612Y-88259557D02*
X197840066Y-87842103D01*
X197840066Y-87842103D02*
X201007371Y-87842103D01*
%TO.N,Net-(U1-BYP)*%
X199394871Y-88792103D02*
X199394871Y-89732638D01*
X199394871Y-89732638D02*
X198802746Y-90324763D01*
%TO.N,GND*%
X200527746Y-90324763D02*
X200527746Y-88321728D01*
X200527746Y-88321728D02*
X201007371Y-87842103D01*
X201007371Y-87842103D02*
X201669871Y-87842103D01*
X201669871Y-87842103D02*
X202979884Y-87842103D01*
X202979884Y-87842103D02*
X203724053Y-88586272D01*
%TO.N,+BATT*%
X201669871Y-86892103D02*
X203675168Y-86856452D01*
X203693222Y-86892103D02*
X203724053Y-86861272D01*
D39*
%TO.N,Net-(P1-D-)*%
X186464342Y-82877706D02*
X187317652Y-83731016D01*
X187317652Y-83731016D02*
X188582484Y-83731016D01*
X188582484Y-83731016D02*
X189149042Y-84297574D01*
X189149042Y-84297574D02*
X189149042Y-85724719D01*
%TO.N,Net-(P1-D+)*%
X189675073Y-82925137D02*
X189649042Y-82951168D01*
X189649042Y-82951168D02*
X189649042Y-85724719D01*
X188092813Y-82893516D02*
X189643452Y-82893516D01*
X189643452Y-82893516D02*
X189675073Y-82925137D01*
%TO.N,GND*%
X194727928Y-73033810D02*
X196635530Y-73033810D01*
X196635530Y-73033810D02*
X197129029Y-72540311D01*
D40*
%TO.N,+3.3V*%
X189637268Y-70382732D02*
X189574536Y-70320000D01*
D41*
X192177268Y-72922732D02*
X192788346Y-73533810D01*
X187288346Y-68033810D02*
X189637268Y-70382732D01*
D39*
X187815428Y-74946310D02*
X187815428Y-72204572D01*
X187815428Y-72204572D02*
X189637268Y-70382732D01*
D41*
X186402928Y-68033810D02*
X187288346Y-68033810D01*
X192788346Y-73533810D02*
X194727928Y-73533810D01*
D39*
X187815428Y-74946310D02*
X186019862Y-74946310D01*
X186019862Y-74946310D02*
X185951606Y-74878054D01*
X194727928Y-73533810D02*
X196397528Y-73533810D01*
X196397528Y-73533810D02*
X197129029Y-74265311D01*
%TO.N,GND*%
X187984625Y-63799808D02*
X188799131Y-62985302D01*
X188799131Y-62985302D02*
X188799131Y-60151493D01*
X188799131Y-60151493D02*
X189363767Y-59586857D01*
%TO.N,RESET*%
X190821563Y-69713306D02*
X190815428Y-69707171D01*
X190815428Y-69707171D02*
X190815428Y-66621310D01*
%TO.N,GND*%
X191887247Y-69452806D02*
X191315428Y-68880987D01*
X191315428Y-68880987D02*
X191315428Y-66621310D01*
%TO.N,BOOT0*%
X177434348Y-71149198D02*
X178259348Y-71974198D01*
X178259348Y-71974198D02*
X183109931Y-71974198D01*
X183109931Y-71974198D02*
X185050319Y-70033810D01*
X185050319Y-70033810D02*
X186402928Y-70033810D01*
%TO.N,GND*%
X183902587Y-69813190D02*
X184190228Y-69813190D01*
X185469608Y-68533810D02*
X186402928Y-68533810D01*
X184190228Y-69813190D02*
X185469608Y-68533810D01*
X180863174Y-71076689D02*
X182639088Y-71076689D01*
X182639088Y-71076689D02*
X183902587Y-69813190D01*
D41*
%TO.N,+3.3V*%
X186402928Y-68033810D02*
X185297856Y-68033810D01*
X185297856Y-68033810D02*
X184380976Y-68950690D01*
X184380976Y-68950690D02*
X182043423Y-68950690D01*
X182043423Y-68950690D02*
X181642424Y-69351689D01*
D39*
%TO.N,osc1*%
X183902587Y-68088190D02*
X184377587Y-68088190D01*
X184377587Y-68088190D02*
X185850032Y-66615745D01*
X185850032Y-66615745D02*
X185850032Y-66406812D01*
D41*
%TO.N,osc2*%
X190315428Y-66621310D02*
X190315428Y-65818124D01*
X190315428Y-65818124D02*
X189932304Y-65435000D01*
X189932304Y-65435000D02*
X186628220Y-65435000D01*
X186628220Y-65435000D02*
X185850032Y-64656812D01*
%TO.N,osc1*%
X185850032Y-66406812D02*
X186297744Y-66406812D01*
X186297744Y-66406812D02*
X187670932Y-67780000D01*
X187670932Y-67780000D02*
X189700000Y-67780000D01*
X189700000Y-67780000D02*
X189815428Y-67664572D01*
X189815428Y-67664572D02*
X189815428Y-66621310D01*
D39*
%TO.N,GND*%
X179259348Y-71149198D02*
X179268272Y-71118529D01*
X179268272Y-71118529D02*
X180790665Y-71149198D01*
X189416513Y-58104720D02*
X189413428Y-59537196D01*
X180790665Y-71149198D02*
X180863174Y-71076689D01*
X189413428Y-58105267D02*
X189416513Y-58104720D01*
X189413428Y-59537196D02*
X189363767Y-59586857D01*
%TO.N,+3.3V*%
X191110811Y-58084765D02*
X191110811Y-59564813D01*
X191117433Y-58078143D02*
X191110811Y-58084765D01*
X191110811Y-59564813D02*
X191088767Y-59586857D01*
X191110811Y-58065826D02*
X191110811Y-58071521D01*
X191110811Y-58071521D02*
X191117433Y-58078143D01*
X180800604Y-69414259D02*
X180863174Y-69351689D01*
X179284861Y-69414259D02*
X180800604Y-69414259D01*
X180863174Y-69351689D02*
X181642424Y-69351689D01*
%TO.N,RESET*%
X191071370Y-56280267D02*
X191110811Y-56240826D01*
X189412219Y-56291155D02*
X191071370Y-56280267D01*
X189413428Y-56280267D02*
X189412219Y-56291155D01*
%TO.N,BOOT0*%
X177459861Y-69414259D02*
X177459861Y-71123685D01*
X177459861Y-71123685D02*
X177434348Y-71149198D01*
%TD*%
M02*
