%TF.GenerationSoftware,KiCad,Pcbnew,7.0.8*%
%TF.CreationDate,2023-10-13T15:36:57+03:00*%
%TF.ProjectId,4x4_switch,3478345f-7377-4697-9463-682e6b696361,rev?*%
%TF.SameCoordinates,Original*%
%TF.FileFunction,Soldermask,Top*%
%TF.FilePolarity,Negative*%
%FSLAX46Y46*%
G04 Gerber Fmt 4.6, Leading zero omitted, Abs format (unit mm)*
G04 Created by KiCad (PCBNEW 7.0.8) date 2023-10-13 15:36:57*
%MOMM*%
%LPD*%
G01*
G04 APERTURE LIST*
%ADD10R,1.350000X1.350000*%
%ADD11O,1.350000X1.350000*%
%ADD12R,1.700000X1.700000*%
%ADD13O,1.700000X1.700000*%
%ADD14C,3.050000*%
%ADD15C,4.000000*%
%ADD16C,0.650000*%
%ADD17O,1.000000X1.600000*%
%ADD18O,1.000000X2.100000*%
G04 APERTURE END LIST*
D10*
%TO.C,J1*%
X219853622Y-81312027D03*
D11*
X221853622Y-81312027D03*
%TD*%
D12*
%TO.C,J2*%
X177155948Y-90157813D03*
D13*
X174615948Y-90157813D03*
X172075948Y-90157813D03*
%TD*%
D14*
%TO.C,SW11*%
X160990000Y-63860000D03*
D15*
X164800000Y-66400000D03*
D14*
X167340000Y-61320000D03*
%TD*%
%TO.C,SW23*%
X210190000Y-63860000D03*
D15*
X214000000Y-66400000D03*
D14*
X216540000Y-61320000D03*
%TD*%
%TO.C,SW19*%
X193790000Y-63860000D03*
D15*
X197600000Y-66400000D03*
D14*
X200140000Y-61320000D03*
%TD*%
%TO.C,SW24*%
X210190000Y-80260000D03*
D15*
X214000000Y-82800000D03*
D14*
X216540000Y-77720000D03*
%TD*%
%TO.C,SW12*%
X160990000Y-80260000D03*
D15*
X164800000Y-82800000D03*
D14*
X167340000Y-77720000D03*
%TD*%
%TO.C,SW16*%
X177390000Y-80260000D03*
D15*
X181200000Y-82800000D03*
D14*
X183740000Y-77720000D03*
%TD*%
%TO.C,SW14*%
X177390000Y-47460000D03*
D15*
X181200000Y-50000000D03*
D14*
X183740000Y-44920000D03*
%TD*%
%TO.C,SW13*%
X177390000Y-31060000D03*
D15*
X181200000Y-33600000D03*
D14*
X183740000Y-28520000D03*
%TD*%
%TO.C,SW18*%
X200140000Y-44920000D03*
D15*
X197600000Y-50000000D03*
D14*
X193790000Y-47460000D03*
%TD*%
%TO.C,SW15*%
X177390000Y-63860000D03*
D15*
X181200000Y-66400000D03*
D14*
X183740000Y-61320000D03*
%TD*%
%TO.C,SW9*%
X160990000Y-31060000D03*
D15*
X164800000Y-33600000D03*
D14*
X167340000Y-28520000D03*
%TD*%
%TO.C,SW10*%
X160990000Y-47460000D03*
D15*
X164800000Y-50000000D03*
D14*
X167340000Y-44920000D03*
%TD*%
%TO.C,SW21*%
X210190000Y-31060000D03*
D15*
X214000000Y-33600000D03*
D14*
X216540000Y-28520000D03*
%TD*%
%TO.C,SW17*%
X193790000Y-31060000D03*
D15*
X197600000Y-33600000D03*
D14*
X200140000Y-28520000D03*
%TD*%
%TO.C,SW22*%
X210190000Y-47460000D03*
D15*
X214000000Y-50000000D03*
D14*
X216540000Y-44920000D03*
%TD*%
%TO.C,SW20*%
X200140000Y-77720000D03*
D15*
X197600000Y-82800000D03*
D14*
X193790000Y-80260000D03*
%TD*%
D16*
%TO.C,P1*%
X192289042Y-87169719D03*
X186509042Y-87169719D03*
D17*
X193719042Y-90819719D03*
D18*
X193719042Y-86639719D03*
D17*
X185079042Y-90819719D03*
D18*
X185079042Y-86639719D03*
%TD*%
M02*
